<svg width="183" height="176" viewBox="0 0 183 176" fill="none" xmlns="http://www.w3.org/2000/svg">
<g clip-path="url(#clip0_13074_3700)">
<path d="M544.507 108.404C543.103 118.409 538.199 127.559 530.695 134.166C523.194 140.772 513.596 144.394 503.676 144.359C474.101 155.439 442.298 158.926 411.074 154.519C415.26 186.692 419.406 212.183 421.184 227.908C427.128 280.329 430.553 329.918 430.852 376.391C430.978 395.184 428.291 404.931 422.971 412.842C419.884 417.43 415.908 421.413 411.074 426.17C403.744 433.41 396.189 437.41 389.823 437.391C378.911 437.353 368.457 432.9 360.76 425.012C353.063 417.123 348.754 406.448 348.78 395.331L349.006 301.017C349.012 298.236 347.935 295.566 346.012 293.596C344.086 291.623 341.474 290.511 338.745 290.502L277.028 290.287C274.299 290.278 271.681 291.374 269.747 293.332C267.813 295.291 266.723 297.952 266.716 300.73L266.492 394.278C266.438 417.098 248.757 436.203 226.388 436.731L211.08 434.127L191.064 430.718C186.636 429.97 182.508 427.954 179.158 424.908C175.809 421.86 173.376 417.909 172.144 413.513C170.833 408.816 170.952 403.827 172.487 399.205L184.334 363.287C184.968 341.703 186.198 319.676 187.978 297.037C189.758 274.396 192.1 251.138 194.946 227.091C197.948 201.78 201.435 177.341 205.408 153.773C174.162 157.965 142.377 154.255 112.857 142.971C87.5803 131.659 71.782 113.918 71.8133 100.911C71.8399 89.7954 76.2004 79.1486 83.935 71.3142C91.67 63.48 102.146 59.0998 113.058 59.1374L209.931 59.4724C316.94 122.719 407.059 60.1541 407.059 60.1541L503.259 60.4869C525.66 60.5642 544.428 78.5958 544.968 101.384C545.007 103.733 544.853 106.082 544.507 108.404Z" fill="white"/>
<path d="M544.507 108.404C543.103 118.409 538.199 127.559 530.695 134.166C523.194 140.772 513.596 144.394 503.676 144.359C474.101 155.439 442.298 158.926 411.074 154.519C415.26 186.692 419.406 212.183 421.184 227.908C427.128 280.329 430.553 329.918 430.852 376.391C430.978 395.184 428.291 404.931 422.971 412.842C419.884 417.43 415.908 421.413 411.074 426.17C403.744 433.41 396.189 437.41 389.823 437.391C378.911 437.353 368.457 432.9 360.76 425.012C353.063 417.123 348.754 406.448 348.78 395.331L349.006 301.017C349.012 298.236 347.935 295.566 346.012 293.596C344.086 291.623 341.474 290.511 338.745 290.502L277.028 290.287C274.299 290.278 271.681 291.374 269.747 293.332C267.813 295.291 266.723 297.952 266.716 300.73L266.492 394.278C266.438 417.098 248.757 436.203 226.388 436.731L211.08 434.127L191.064 430.718C186.636 429.97 182.508 427.954 179.158 424.908C175.809 421.86 173.376 417.909 172.144 413.513C170.833 408.816 170.952 403.827 172.487 399.205L184.334 363.287C184.968 341.703 186.198 319.676 187.978 297.037C189.758 274.396 192.1 251.138 194.946 227.091C197.948 201.78 201.435 177.341 205.408 153.773C174.162 157.965 142.377 154.255 112.857 142.971C87.5803 131.659 71.782 113.918 71.8133 100.911C71.8399 89.7954 76.2004 79.1486 83.935 71.3142C91.67 63.48 102.146 59.0998 113.058 59.1374L209.931 59.4724C316.94 122.719 407.059 60.1541 407.059 60.1541L503.259 60.4869C525.66 60.5642 544.428 78.5958 544.968 101.384C545.007 103.733 544.853 106.082 544.507 108.404Z" fill="white"/>
<path d="M544.505 108.416C543.101 118.423 538.197 127.571 530.696 134.177C523.192 140.787 513.594 144.405 503.674 144.371C474.1 155.451 442.296 158.941 411.072 154.53C415.258 186.706 419.404 212.195 421.182 227.923C427.126 280.34 430.551 329.93 430.85 376.403C430.976 395.196 428.292 404.945 422.969 412.854C419.882 417.445 415.909 421.425 411.072 426.182C403.742 433.422 396.19 437.425 389.824 437.402C378.911 437.365 368.455 432.912 360.758 425.023C353.061 417.138 348.752 406.459 348.778 395.342L349.004 301.029C349.01 298.25 347.933 295.581 346.01 293.608C344.086 291.635 341.472 290.523 338.743 290.514L277.026 290.299C274.298 290.29 271.679 291.386 269.745 293.344C267.812 295.303 266.722 297.964 266.715 300.745L266.491 394.37C266.436 417.192 248.755 436.298 226.387 436.826L211.078 434.222L191.062 430.813C187.674 430.237 184.447 428.917 181.607 426.948C178.766 424.978 176.379 422.403 174.61 419.4C172.841 416.401 171.733 413.043 171.362 409.565C170.992 406.084 171.367 402.566 172.463 399.251L184.309 363.336C184.944 341.75 186.174 319.725 187.954 297.083C189.734 274.442 192.075 251.187 194.922 227.14C197.923 201.829 201.41 177.387 205.383 153.82C174.138 158.012 142.353 154.304 112.833 143.021C87.5561 131.709 71.7578 113.968 71.7889 100.961C71.8155 89.8429 76.1759 79.1961 83.9109 71.3619C91.6459 63.5275 102.122 59.1473 113.034 59.1849L209.907 59.52C316.916 122.768 407.035 60.2016 407.035 60.2016L503.235 60.5342C525.636 60.6119 544.404 78.6431 544.944 101.431C544.989 103.768 544.84 106.105 544.505 108.416Z" stroke="#172338" stroke-width="3.11209" stroke-miterlimit="10"/>
<path d="M78.2874 64.4545L78.4476 64.3154C79.4251 63.4803 80.5599 62.8575 81.7825 62.4853C83.0051 62.1131 84.2895 61.9993 85.5573 62.1506C86.8252 62.3023 88.0496 62.716 89.155 63.3667C90.2608 64.017 91.2245 64.8907 91.9874 65.9339L92.5342 66.6811C93.4132 67.8842 94.0029 69.2807 94.2554 70.7581C94.5081 72.2353 94.4165 73.752 93.9881 75.186L84.4602 106.953C84.0987 108.154 83.5076 109.272 82.7205 110.242C81.9337 111.208 80.9667 112.008 79.8749 112.596L78.7306 113.232C77.4467 113.923 76.0221 114.302 74.5696 114.336C73.1172 114.371 71.6761 114.064 70.3602 113.433C69.0442 112.805 67.8892 111.873 66.9862 110.715C66.0833 109.554 65.4572 108.194 65.1571 106.746C64.828 105.158 64.9027 103.512 65.374 101.961L75.3622 68.9621C75.8851 67.2006 76.9015 65.6343 78.2874 64.4545Z" fill="white" stroke="#172338" stroke-width="3.11209" stroke-miterlimit="10"/>
<path d="M163.794 76.0145C160.495 95.4469 158.893 115.149 159.007 134.88C159.021 140.49 159.192 146.094 159.527 151.693C159.681 154.558 155.395 154.572 155.241 151.71C154.134 131.707 154.788 111.64 157.204 91.7594C157.889 86.0848 158.711 80.4372 159.667 74.8166C160.14 71.9985 164.233 73.1725 163.794 75.9904V76.0145Z" fill="#172338"/>
<path d="M183.527 59.9581L184.665 63.1213L174.091 72.2168L153.633 72.4273L142.173 63.9901L142.447 59.2384L171.661 59.1376L183.527 59.9581Z" fill="#172338"/>
<path d="M188.293 60.5112C186.873 64.0356 184.65 67.1648 181.804 69.6392C178.961 72.1136 175.578 73.8615 171.94 74.7385C163.547 76.5829 154.793 75.4462 147.13 71.5175C143.478 69.4343 140.694 66.2767 140.249 61.935C140.255 61.3563 140.481 60.8023 140.881 60.3918C141.284 59.9811 141.826 59.7467 142.394 59.7385C142.959 59.7515 143.495 59.9853 143.895 60.3918C144.292 60.7981 144.524 61.3455 144.535 61.9202C144.899 65.4705 148.629 67.728 151.559 68.8825C155.834 70.5903 160.399 71.4254 164.993 71.3393C172.788 71.1726 181.178 67.2081 184.156 59.3964C184.315 58.8468 184.678 58.3807 185.168 58.0952C185.654 57.8096 186.233 57.7262 186.781 57.8622C187.326 58.0179 187.79 58.3873 188.072 58.8897C188.355 59.392 188.43 59.9877 188.282 60.5467L188.293 60.5112Z" fill="#172338"/>
<path d="M82.8715 67.3822L71.6768 94.0222C70.771 96.1814 69.3897 98.0539 67.687 99.4331C65.9843 100.812 64.0244 101.65 62.0198 101.85L47.4925 103.284C46.514 103.384 45.5382 103.327 44.5905 103.115L28.1006 99.5132C27.575 99.3928 27.0605 99.2321 26.5572 99.0314L12.4354 93.2019C11.0402 92.6313 9.78484 91.7165 8.75329 90.515C7.71882 89.3135 6.92756 87.854 6.43268 86.2281L5.45961 83.0681L3.91352 78.0446C3.24817 75.8748 3.12784 73.4868 3.56674 71.145L7.63193 49.4102C8.10154 46.8842 9.2004 44.5241 10.7914 42.6362L13.892 38.9444C15.3961 37.1576 17.275 35.8676 19.3075 35.2244C21.3401 34.5809 23.4427 34.6104 25.3717 35.3094L33.3986 38.2482C34.8273 38.7815 36.3623 38.9458 37.8971 38.7309C39.4348 38.5158 40.9391 37.9257 42.3145 36.9999C43.6872 36.0743 44.9007 34.8333 45.8708 33.3593C46.8409 31.8851 47.5483 30.2113 47.9424 28.4478L48.1102 27.7429C48.6945 25.2181 49.9051 22.8992 51.5855 21.0891C53.2629 19.2789 55.3348 18.0607 57.5295 17.5942L59.2826 17.2244C61.6534 16.7143 64.044 17.11 66.0904 18.3515C68.1368 19.5931 69.7278 21.6128 70.6225 24.1037L74.5423 35.2567L83.0417 56.3565C83.7294 58.0273 84.0706 59.8869 84.0399 61.7961C84.0092 63.7053 83.6123 65.6149 82.8715 67.3822Z" fill="white"/>
<path d="M82.8715 67.3822L71.6768 94.0222C70.771 96.1814 69.3897 98.0539 67.687 99.4331C65.9843 100.812 64.0244 101.65 62.0198 101.85L47.4925 103.284C46.514 103.384 45.5382 103.327 44.5905 103.115L28.1006 99.5132C27.575 99.3928 27.0604 99.2321 26.5572 99.0314L12.4354 93.2019C11.0402 92.6313 9.78484 91.7165 8.75329 90.515C7.71882 89.3135 6.92756 87.854 6.43268 86.2281L5.45961 83.0681L3.91352 78.0446C3.24817 75.8748 3.12784 73.4868 3.56674 71.145L7.63193 49.4102C8.10154 46.8842 9.2004 44.5241 10.7914 42.6362L13.892 38.9444C15.3961 37.1576 17.275 35.8676 19.3075 35.2244C21.3401 34.5809 23.4427 34.6104 25.3717 35.3094L33.3986 38.2482C34.8273 38.7815 36.3623 38.9458 37.8971 38.7309C39.4348 38.5158 40.9391 37.9257 42.3145 36.9999C43.6872 36.0743 44.9007 34.8333 45.8708 33.3593C46.8409 31.8851 47.5483 30.2113 47.9424 28.4478L48.1102 27.7429C48.6945 25.2181 49.9051 22.8992 51.5855 21.0891C53.2629 19.2789 55.3348 18.0607 57.5295 17.5942L59.2826 17.2244C61.6534 16.7143 64.044 17.11 66.0904 18.3515C68.1368 19.5931 69.7278 21.6128 70.6225 24.1037L74.5423 35.2567L83.0417 56.3565C83.7294 58.0273 84.0706 59.8869 84.0399 61.7961C84.0092 63.7053 83.6123 65.6149 82.8715 67.3822Z" fill="url(#paint0_radial_13074_3700)" fill-opacity="0.6"/>
<path opacity="0.6" d="M82.8715 67.3819L71.674 94.0225C70.7682 96.1817 69.3897 98.0543 67.6872 99.4334C65.9844 100.813 64.0245 101.65 62.0199 101.848L47.4926 103.284C46.5142 103.385 45.5384 103.327 44.5906 103.115L28.1007 99.5135C27.5751 99.3931 27.0606 99.2297 26.5573 99.0317L12.4355 93.2022C11.0403 92.6316 9.78498 91.714 8.75051 90.5153C7.71876 89.3138 6.92768 87.8543 6.4328 86.2284L5.45973 83.0684C12.6311 82.7186 26.0011 87.5072 33.08 89.6264C42.3623 92.3934 61.6677 98.2718 66.0013 91.1604C70.335 84.052 66.4766 75.7733 68.8223 75.312C83.0841 72.5097 78.5351 44.5109 67.43 36.1858C62.6882 32.6202 65.5036 19.7541 50.2299 24.8781C51.6865 23.6058 55.7573 17.9382 57.5689 17.5873L59.3247 17.2175C61.6871 16.719 64.0692 17.1213 66.1075 18.3634C68.1457 19.6056 69.7308 21.6203 70.6228 24.1034L74.5426 35.2565L83.0421 56.3562C83.7271 58.027 84.0682 59.8866 84.0402 61.7958C84.0095 63.705 83.6095 65.6146 82.8715 67.3819Z" fill="url(#paint1_radial_13074_3700)"/>
<path d="M82.8715 67.3822L71.6768 94.0222C70.771 96.1814 69.3897 98.0539 67.687 99.4331C65.9843 100.812 64.0244 101.65 62.0198 101.85L47.4925 103.284C46.514 103.384 45.5382 103.327 44.5905 103.115L28.1006 99.5132C27.575 99.3928 27.0604 99.2321 26.5572 99.0314L12.4354 93.2019C11.0402 92.6313 9.78485 91.7165 8.75329 90.515C7.71882 89.3135 6.92756 87.854 6.43268 86.2281L5.45961 83.0681L3.91352 78.0446C3.24817 75.8748 3.12784 73.4868 3.56674 71.145L7.63193 49.4102C8.10154 46.8842 9.2004 44.5241 10.7914 42.6362L13.892 38.9444C15.3961 37.1576 17.275 35.8676 19.3075 35.2244C21.3401 34.5809 23.4427 34.6104 25.3717 35.3094L33.3986 38.2482C34.8273 38.7815 36.3623 38.9458 37.8971 38.7309C39.4348 38.5158 40.9391 37.9257 42.3145 36.9999C43.6872 36.0743 44.9007 34.8333 45.8708 33.3593C46.8409 31.8851 47.5483 30.2113 47.9424 28.4478L48.1102 27.7429C48.6945 25.2181 49.9051 22.8992 51.5855 21.0891C53.2629 19.2789 55.3348 18.0607 57.5295 17.5942L59.2826 17.2244C61.6534 16.7143 64.044 17.11 66.0904 18.3515C68.1368 19.5931 69.7278 21.6128 70.6225 24.1037L74.5423 35.2567L83.0417 56.3565C83.7294 58.0273 84.0706 59.8869 84.0399 61.7961C84.0092 63.7053 83.6123 65.6149 82.8715 67.3822Z" stroke="#172338" stroke-width="3.11209" stroke-miterlimit="10"/>
<path d="M46.9502 47.5527L38.8673 40.4655L24.6391 33.1851C22.1173 38.2897 27.7173 57.1877 27.2506 58.1302C26.7864 59.0725 27.0325 68.3469 27.2142 72.8664L38.7862 72.8853L45.7563 61.697L46.9502 47.5527Z" fill="white"/>
<path d="M26.9583 74.7415L32.2928 74.7828L37.6889 74.0757C38.6394 73.9513 39.4754 73.3666 39.9368 72.5048L44.1278 64.6586C44.2452 64.4377 44.3346 64.2053 44.3962 63.9619C45.193 60.8307 46.8007 54.5079 47.55 51.5641C48.2937 48.6384 41.8744 41.9245 38.1307 38.5178C37.7952 38.2132 37.3983 37.9985 36.9648 37.8792L22.4039 33.8708" stroke="#172338" stroke-width="3.11772"/>
</g>
<defs>
<radialGradient id="paint0_radial_13074_3700" cx="0" cy="0" r="1" gradientUnits="userSpaceOnUse" gradientTransform="translate(44.6226 29.5341) rotate(56.8931) scale(81.2857 108.715)">
<stop stop-color="#4DB748" stop-opacity="0.4"/>
<stop offset="0.4531" stop-color="#E3E3E3" stop-opacity="0.5667"/>
<stop offset="1" stop-color="#F4F4F5"/>
</radialGradient>
<radialGradient id="paint1_radial_13074_3700" cx="0" cy="0" r="1" gradientUnits="userSpaceOnUse" gradientTransform="translate(46.6804 29.7909) rotate(58.3043) scale(79.6573 105.695)">
<stop stop-color="#F4F4F5"/>
<stop offset="0.4819" stop-color="#BAAEBA" stop-opacity="0.5667"/>
<stop offset="1" stop-color="#A6D172" stop-opacity="0.96"/>
</radialGradient>
<clipPath id="clip0_13074_3700">
<rect width="613" height="634.554" fill="white" transform="translate(0 -196)"/>
</clipPath>
</defs>
</svg>
