<svg width="183" height="176" viewBox="0 0 183 176" fill="none" xmlns="http://www.w3.org/2000/svg">
<g clip-path="url(#clip0_13074_3758)">
<path d="M-361.507 108.404C-360.103 118.409 -355.199 127.559 -347.695 134.166C-340.194 140.772 -330.596 144.394 -320.676 144.359C-291.101 155.439 -259.298 158.926 -228.074 154.519C-232.26 186.692 -236.406 212.183 -238.184 227.908C-244.128 280.329 -247.553 329.918 -247.852 376.391C-247.978 395.184 -245.291 404.931 -239.971 412.842C-236.884 417.43 -232.908 421.413 -228.074 426.17C-220.744 433.41 -213.189 437.41 -206.823 437.391C-195.911 437.353 -185.457 432.9 -177.76 425.012C-170.063 417.123 -165.754 406.448 -165.78 395.331L-166.006 301.017C-166.012 298.236 -164.935 295.566 -163.012 293.596C-161.086 291.623 -158.474 290.511 -155.745 290.502L-94.0277 290.287C-91.2995 290.278 -88.6806 291.374 -86.747 293.332C-84.8131 295.291 -83.7229 297.952 -83.7163 300.73L-83.4923 394.278C-83.4379 417.098 -65.7569 436.203 -43.3884 436.731L-28.0798 434.127L-8.06387 430.718C-3.63637 429.97 0.492378 427.954 3.84167 424.908C7.19116 421.86 9.6236 417.909 10.8558 413.513C12.1672 408.816 12.0477 403.827 10.5131 399.205L-1.33359 363.287C-1.96823 341.703 -3.19824 319.676 -4.97795 297.037C-6.75805 274.396 -9.0997 251.138 -11.9458 227.091C-14.9477 201.78 -18.435 177.341 -22.4077 153.773C8.83754 157.965 40.6229 154.255 70.1426 142.971C95.4197 131.659 111.218 113.918 111.187 100.911C111.16 89.7954 106.8 79.1486 99.065 71.3142C91.33 63.48 80.8541 59.0998 69.942 59.1374L-26.931 59.4724C-133.94 122.719 -224.059 60.1541 -224.059 60.1541L-320.259 60.4869C-342.66 60.5642 -361.428 78.5958 -361.968 101.384C-362.007 103.733 -361.853 106.082 -361.507 108.404Z" fill="white"/>
<path d="M-361.507 108.404C-360.103 118.409 -355.199 127.559 -347.695 134.166C-340.194 140.772 -330.596 144.394 -320.676 144.359C-291.101 155.439 -259.298 158.926 -228.074 154.519C-232.26 186.692 -236.406 212.183 -238.184 227.908C-244.128 280.329 -247.553 329.918 -247.852 376.391C-247.978 395.184 -245.291 404.931 -239.971 412.842C-236.884 417.43 -232.908 421.413 -228.074 426.17C-220.744 433.41 -213.189 437.41 -206.823 437.391C-195.911 437.353 -185.457 432.9 -177.76 425.012C-170.063 417.123 -165.754 406.448 -165.78 395.331L-166.006 301.017C-166.012 298.236 -164.935 295.566 -163.012 293.596C-161.086 291.623 -158.474 290.511 -155.745 290.502L-94.0277 290.287C-91.2995 290.278 -88.6806 291.374 -86.747 293.332C-84.8131 295.291 -83.7229 297.952 -83.7163 300.73L-83.4923 394.278C-83.4379 417.098 -65.7569 436.203 -43.3884 436.731L-28.0798 434.127L-8.06387 430.718C-3.63637 429.97 0.492378 427.954 3.84167 424.908C7.19116 421.86 9.6236 417.909 10.8558 413.513C12.1672 408.816 12.0477 403.827 10.5131 399.205L-1.33359 363.287C-1.96823 341.703 -3.19824 319.676 -4.97795 297.037C-6.75805 274.396 -9.0997 251.138 -11.9458 227.091C-14.9477 201.78 -18.435 177.341 -22.4077 153.773C8.83754 157.965 40.6229 154.255 70.1426 142.971C95.4197 131.659 111.218 113.918 111.187 100.911C111.16 89.7954 106.8 79.1486 99.065 71.3142C91.33 63.48 80.8541 59.0998 69.942 59.1374L-26.931 59.4724C-133.94 122.719 -224.059 60.1541 -224.059 60.1541L-320.259 60.4869C-342.66 60.5642 -361.428 78.5958 -361.968 101.384C-362.007 103.733 -361.853 106.082 -361.507 108.404Z" fill="white"/>
<path d="M-361.505 108.416C-360.101 118.423 -355.197 127.571 -347.696 134.177C-340.192 140.787 -330.594 144.405 -320.674 144.371C-291.1 155.451 -259.296 158.941 -228.072 154.53C-232.258 186.706 -236.404 212.195 -238.182 227.923C-244.126 280.34 -247.551 329.93 -247.85 376.403C-247.976 395.196 -245.292 404.945 -239.969 412.854C-236.882 417.445 -232.909 421.425 -228.072 426.182C-220.742 433.422 -213.19 437.425 -206.824 437.402C-195.911 437.365 -185.455 432.912 -177.758 425.023C-170.061 417.138 -165.752 406.459 -165.778 395.342L-166.004 301.029C-166.01 298.25 -164.933 295.581 -163.01 293.608C-161.086 291.635 -158.472 290.523 -155.743 290.514L-94.0262 290.299C-91.2983 290.29 -88.6791 291.386 -86.7454 293.344C-84.8118 295.303 -83.7217 297.964 -83.7149 300.745L-83.4906 394.37C-83.4358 417.192 -65.7552 436.298 -43.3867 436.826L-28.0781 434.222L-8.06216 430.813C-4.6736 430.237 -1.44736 428.917 1.39345 426.948C4.23406 424.978 6.6212 422.403 8.39003 419.4C10.1587 416.401 11.267 413.043 11.6377 409.565C12.0083 406.084 11.633 402.566 10.5375 399.251L-1.30934 363.336C-1.94378 341.75 -3.1736 319.725 -4.9537 297.083C-6.7338 274.442 -9.07545 251.187 -11.9215 227.14C-14.9231 201.829 -18.4104 177.387 -22.3834 153.82C8.86177 158.012 40.6473 154.304 70.1669 143.021C95.4439 131.709 111.242 113.968 111.211 100.961C111.185 89.8429 106.824 79.1961 99.0891 71.3619C91.3541 63.5275 80.8782 59.1473 69.9659 59.1849L-26.9067 59.52C-133.916 122.768 -224.035 60.2016 -224.035 60.2016L-320.235 60.5342C-342.636 60.6119 -361.404 78.6431 -361.944 101.431C-361.989 103.768 -361.84 106.105 -361.505 108.416Z" stroke="#172338" stroke-width="3.11209" stroke-miterlimit="10"/>
<path d="M104.713 64.4545L104.552 64.3154C103.575 63.4803 102.44 62.8575 101.218 62.4853C99.9949 62.1131 98.7105 61.9993 97.4427 62.1506C96.1748 62.3023 94.9504 62.716 93.845 63.3667C92.7392 64.017 91.7755 64.8907 91.0126 65.9339L90.4658 66.6811C89.5868 67.8842 88.9971 69.2807 88.7446 70.7581C88.4919 72.2353 88.5835 73.752 89.0119 75.186L98.5398 106.953C98.9013 108.154 99.4924 109.272 100.279 110.242C101.066 111.208 102.033 112.008 103.125 112.596L104.269 113.232C105.553 113.923 106.978 114.302 108.43 114.336C109.883 114.371 111.324 114.064 112.64 113.433C113.956 112.805 115.111 111.873 116.014 110.715C116.917 109.554 117.543 108.194 117.843 106.746C118.172 105.158 118.097 103.512 117.626 101.961L107.638 68.9621C107.115 67.2006 106.098 65.6343 104.713 64.4545Z" fill="white" stroke="#172338" stroke-width="3.11209" stroke-miterlimit="10"/>
<path d="M19.2063 76.0145C22.5054 95.4469 24.1075 115.149 23.9928 134.88C23.9788 140.49 23.8083 146.094 23.4728 151.693C23.3191 154.558 27.6051 154.572 27.7588 151.71C28.866 131.707 28.2117 111.64 25.796 91.7594C25.111 86.0848 24.289 80.4372 23.3329 74.8166C22.8603 71.9985 18.7672 73.1725 19.2063 75.9904V76.0145Z" fill="#172338"/>
<path d="M-0.526756 59.9581L-1.66464 63.1213L8.90924 72.2168L29.3665 72.4273L40.8268 63.9901L40.5527 59.2384L11.3387 59.1376L-0.526756 59.9581Z" fill="#172338"/>
<path d="M-5.29349 60.5112C-3.87318 64.0356 -1.65049 67.1648 1.19576 69.6392C4.0391 72.1136 7.42221 73.8615 11.0596 74.7385C19.4527 76.5829 28.2067 75.4462 35.8701 71.5175C39.5215 69.4343 42.3061 66.2767 42.7507 61.935C42.745 61.3563 42.5186 60.8023 42.1187 60.3918C41.7162 59.9811 41.1737 59.7467 40.6061 59.7385C40.0413 59.7515 39.5046 59.9853 39.1048 60.3918C38.7078 60.7981 38.4758 61.3455 38.4645 61.9202C38.101 65.4705 34.3713 67.728 31.4413 68.8825C27.1664 70.5903 22.6007 71.4254 18.0072 71.3393C10.2123 71.1726 1.82184 67.2081 -1.15561 59.3964C-1.315 58.8468 -1.67848 58.3807 -2.16772 58.0952C-2.65425 57.8096 -3.23291 57.7262 -3.78086 57.8622C-4.32608 58.0179 -4.79025 58.3873 -5.07248 58.8897C-5.35472 59.392 -5.43034 59.9877 -5.28222 60.5467L-5.29349 60.5112Z" fill="#172338"/>
<path d="M100.129 67.3822L111.323 94.0222C112.229 96.1814 113.61 98.0539 115.313 99.4331C117.016 100.812 118.976 101.65 120.98 101.85L135.508 103.284C136.486 103.384 137.462 103.327 138.41 103.115L154.899 99.5132C155.425 99.3928 155.94 99.2321 156.443 99.0314L170.565 93.2019C171.96 92.6313 173.215 91.7165 174.247 90.515C175.281 89.3135 176.072 87.854 176.567 86.2281L177.54 83.0681L179.087 78.0446C179.752 75.8748 179.872 73.4868 179.433 71.145L175.368 49.4102C174.898 46.8842 173.8 44.5241 172.209 42.6362L169.108 38.9444C167.604 37.1576 165.725 35.8676 163.692 35.2244C161.66 34.5809 159.557 34.6104 157.628 35.3094L149.601 38.2482C148.173 38.7815 146.638 38.9458 145.103 38.7309C143.565 38.5158 142.061 37.9257 140.686 36.9999C139.313 36.0743 138.099 34.8333 137.129 33.3593C136.159 31.8851 135.452 30.2113 135.058 28.4478L134.89 27.7429C134.306 25.2181 133.095 22.8992 131.415 21.0891C129.737 19.2789 127.665 18.0607 125.471 17.5942L123.717 17.2244C121.347 16.7143 118.956 17.11 116.91 18.3515C114.863 19.5931 113.272 21.6128 112.378 24.1037L108.458 35.2567L99.9583 56.3565C99.2706 58.0273 98.9294 59.8869 98.9601 61.7961C98.9908 63.7053 99.3878 65.6149 100.129 67.3822Z" fill="white"/>
<path d="M100.129 67.3822L111.323 94.0222C112.229 96.1814 113.61 98.0539 115.313 99.4331C117.016 100.812 118.976 101.65 120.98 101.85L135.508 103.284C136.486 103.384 137.462 103.327 138.41 103.115L154.899 99.5132C155.425 99.3928 155.94 99.2321 156.443 99.0314L170.565 93.2019C171.96 92.6313 173.215 91.7165 174.247 90.515C175.281 89.3135 176.072 87.854 176.567 86.2281L177.54 83.0681L179.087 78.0446C179.752 75.8748 179.872 73.4868 179.433 71.145L175.368 49.4102C174.898 46.8842 173.8 44.5241 172.209 42.6362L169.108 38.9444C167.604 37.1576 165.725 35.8676 163.692 35.2244C161.66 34.5809 159.557 34.6104 157.628 35.3094L149.601 38.2482C148.173 38.7815 146.638 38.9458 145.103 38.7309C143.565 38.5158 142.061 37.9257 140.686 36.9999C139.313 36.0743 138.099 34.8333 137.129 33.3593C136.159 31.8851 135.452 30.2113 135.058 28.4478L134.89 27.7429C134.306 25.2181 133.095 22.8992 131.415 21.0891C129.737 19.2789 127.665 18.0607 125.471 17.5942L123.717 17.2244C121.347 16.7143 118.956 17.11 116.91 18.3515C114.863 19.5931 113.272 21.6128 112.378 24.1037L108.458 35.2567L99.9583 56.3565C99.2706 58.0273 98.9294 59.8869 98.9601 61.7961C98.9908 63.7053 99.3878 65.6149 100.129 67.3822Z" fill="url(#paint0_radial_13074_3758)" fill-opacity="0.6"/>
<path opacity="0.6" d="M100.129 67.3819L111.326 94.0225C112.232 96.1817 113.61 98.0543 115.313 99.4334C117.016 100.813 118.976 101.65 120.98 101.848L135.507 103.284C136.486 103.385 137.462 103.327 138.409 103.115L154.899 99.5135C155.425 99.3931 155.939 99.2297 156.443 99.0317L170.565 93.2022C171.96 92.6316 173.215 91.714 174.25 90.5153C175.281 89.3138 176.072 87.8543 176.567 86.2284L177.54 83.0684C170.369 82.7186 156.999 87.5072 149.92 89.6264C140.638 92.3934 121.332 98.2718 116.999 91.1604C112.665 84.052 116.523 75.7733 114.178 75.312C99.916 72.5097 104.465 44.5109 115.57 36.1858C120.312 32.6202 117.496 19.7541 132.77 24.8781C131.314 23.6058 127.243 17.9382 125.431 17.5873L123.675 17.2175C121.313 16.719 118.931 17.1213 116.893 18.3634C114.854 19.6056 113.269 21.6203 112.377 24.1034L108.457 35.2565L99.9579 56.3562C99.2729 58.027 98.9318 59.8866 98.9598 61.7958C98.9905 63.705 99.3905 65.6146 100.129 67.3819Z" fill="url(#paint1_radial_13074_3758)"/>
<path d="M100.129 67.3822L111.323 94.0222C112.229 96.1814 113.61 98.0539 115.313 99.4331C117.016 100.812 118.976 101.65 120.98 101.85L135.508 103.284C136.486 103.384 137.462 103.327 138.41 103.115L154.899 99.5132C155.425 99.3928 155.94 99.2321 156.443 99.0314L170.565 93.2019C171.96 92.6313 173.215 91.7165 174.247 90.515C175.281 89.3135 176.072 87.854 176.567 86.2281L177.54 83.0681L179.087 78.0446C179.752 75.8748 179.872 73.4868 179.433 71.145L175.368 49.4102C174.898 46.8842 173.8 44.5241 172.209 42.6362L169.108 38.9444C167.604 37.1576 165.725 35.8676 163.692 35.2244C161.66 34.5809 159.557 34.6104 157.628 35.3094L149.601 38.2482C148.173 38.7815 146.638 38.9458 145.103 38.7309C143.565 38.5158 142.061 37.9257 140.686 36.9999C139.313 36.0743 138.099 34.8333 137.129 33.3593C136.159 31.8851 135.452 30.2113 135.058 28.4478L134.89 27.7429C134.306 25.2181 133.095 22.8992 131.415 21.0891C129.737 19.2789 127.665 18.0607 125.471 17.5942L123.717 17.2244C121.347 16.7143 118.956 17.11 116.91 18.3515C114.863 19.5931 113.272 21.6128 112.378 24.1037L108.458 35.2567L99.9583 56.3565C99.2706 58.0273 98.9294 59.8869 98.9601 61.7961C98.9908 63.7053 99.3878 65.6149 100.129 67.3822Z" stroke="#172338" stroke-width="3.11209" stroke-miterlimit="10"/>
<path d="M136.05 47.5527L144.133 40.4655L158.361 33.1851C160.883 38.2897 155.283 57.1877 155.749 58.1302C156.214 59.0725 155.968 68.3469 155.786 72.8664L144.214 72.8853L137.244 61.697L136.05 47.5527Z" fill="white"/>
<path d="M156.042 74.7415L150.707 74.7828L145.311 74.0757C144.361 73.9513 143.525 73.3666 143.063 72.5048L138.872 64.6586C138.755 64.4377 138.665 64.2053 138.604 63.9619C137.807 60.8307 136.199 54.5079 135.45 51.5641C134.706 48.6384 141.126 41.9245 144.869 38.5178C145.205 38.2132 145.602 37.9985 146.035 37.8792L160.596 33.8708" stroke="#172338" stroke-width="3.11772"/>
</g>
<defs>
<radialGradient id="paint0_radial_13074_3758" cx="0" cy="0" r="1" gradientUnits="userSpaceOnUse" gradientTransform="translate(138.377 29.5341) rotate(123.107) scale(81.2857 108.715)">
<stop stop-color="#4DB748" stop-opacity="0.4"/>
<stop offset="0.4531" stop-color="#E3E3E3" stop-opacity="0.5667"/>
<stop offset="1" stop-color="#F4F4F5"/>
</radialGradient>
<radialGradient id="paint1_radial_13074_3758" cx="0" cy="0" r="1" gradientUnits="userSpaceOnUse" gradientTransform="translate(136.32 29.7909) rotate(121.696) scale(79.6573 105.695)">
<stop stop-color="#F4F4F5"/>
<stop offset="0.4819" stop-color="#BAAEBA" stop-opacity="0.5667"/>
<stop offset="1" stop-color="#A6D172" stop-opacity="0.96"/>
</radialGradient>
<clipPath id="clip0_13074_3758">
<rect width="613" height="634.554" fill="white" transform="matrix(-1 0 0 1 183 -196)"/>
</clipPath>
</defs>
</svg>
