<svg width="714" height="176" viewBox="0 0 714 176" fill="none" xmlns="http://www.w3.org/2000/svg">
<path d="M341.62 64.2133L320.781 64.1428C314.437 64.1214 309.281 69.2301 309.265 75.5535L309.2 102.271C309.184 108.595 314.315 113.739 320.66 113.76L341.499 113.831C347.843 113.852 352.999 108.743 353.015 102.42L353.08 75.7017C353.096 69.3783 347.965 64.2348 341.62 64.2133Z" fill="url(#paint0_radial_0_10)"/>
<path d="M339.776 64.7083L320.989 64.6448C314.645 64.6233 309.489 69.732 309.473 76.0555L309.414 100.448C309.398 106.772 314.529 111.916 320.874 111.937L339.66 112C346.005 112.022 351.161 106.913 351.176 100.59L351.236 76.1967C351.251 69.8733 346.121 64.7298 339.776 64.7083Z" fill="url(#paint1_radial_0_10)"/>
<path d="M341.62 64.2133L320.781 64.1428C314.437 64.1214 309.281 69.2301 309.265 75.5535L309.2 102.271C309.184 108.595 314.315 113.739 320.66 113.76L341.499 113.831C347.843 113.852 352.999 108.743 353.015 102.42L353.08 75.7017C353.096 69.3783 347.965 64.2348 341.62 64.2133Z" stroke="#172338" stroke-width="0.553858" stroke-miterlimit="10"/>
<path d="M372.67 82.9969C372.421 84.7387 371.548 86.3317 370.212 87.4819C368.877 88.6322 367.169 89.2627 365.404 89.2567C360.14 91.1857 354.48 91.7928 348.923 91.0254C349.668 96.6268 350.406 101.065 350.723 103.803C351.781 112.929 352.39 121.563 352.443 129.654C352.466 132.925 351.988 134.622 351.041 136C350.491 136.798 349.784 137.492 348.923 138.32C347.619 139.581 346.274 140.277 345.141 140.274C343.199 140.267 341.339 139.492 339.969 138.118C338.599 136.745 337.832 134.886 337.837 132.951L337.877 116.531C337.878 116.047 337.687 115.582 337.344 115.239C337.001 114.895 336.537 114.702 336.051 114.7L325.067 114.663C324.582 114.661 324.116 114.852 323.772 115.193C323.427 115.534 323.233 115.997 323.232 116.481L323.192 132.768C323.183 136.741 320.036 140.067 316.055 140.159L313.331 139.705L309.768 139.112C308.98 138.982 308.246 138.631 307.649 138.1C307.053 137.57 306.62 136.882 306.401 136.117C306.168 135.299 306.189 134.43 306.462 133.625L308.571 127.372C308.683 123.614 308.902 119.779 309.219 115.838C309.536 111.896 309.953 107.847 310.459 103.66C310.993 99.2537 311.614 94.9988 312.321 90.8956C306.76 91.6255 301.104 90.9795 295.85 89.015C291.351 87.0456 288.54 83.9569 288.545 81.6924C288.55 79.7571 289.326 77.9035 290.703 76.5395C292.079 75.1755 293.944 74.4129 295.886 74.4195L313.126 74.4778C332.17 85.489 348.209 74.5965 348.209 74.5965L365.33 74.6544C369.316 74.6679 372.656 77.8072 372.752 81.7747C372.759 82.1836 372.732 82.5926 372.67 82.9969Z" fill="white"/>
<path d="M372.67 82.9969C372.421 84.7387 371.548 86.3317 370.212 87.4819C368.877 88.6322 367.169 89.2627 365.404 89.2567C360.14 91.1857 354.48 91.7928 348.923 91.0254C349.668 96.6268 350.406 101.065 350.723 103.803C351.781 112.929 352.39 121.563 352.443 129.654C352.466 132.925 351.988 134.622 351.041 136C350.491 136.798 349.784 137.492 348.923 138.32C347.619 139.581 346.274 140.277 345.141 140.274C343.199 140.267 341.339 139.492 339.969 138.118C338.599 136.745 337.832 134.886 337.837 132.951L337.877 116.531C337.878 116.047 337.687 115.582 337.344 115.239C337.001 114.895 336.537 114.702 336.051 114.7L325.067 114.663C324.582 114.661 324.116 114.852 323.772 115.193C323.427 115.534 323.233 115.997 323.232 116.481L323.192 132.768C323.183 136.741 320.036 140.067 316.055 140.159L313.331 139.705L309.768 139.112C308.98 138.982 308.246 138.631 307.649 138.1C307.053 137.57 306.62 136.882 306.401 136.117C306.168 135.299 306.189 134.43 306.462 133.625L308.571 127.372C308.683 123.614 308.902 119.779 309.219 115.838C309.536 111.896 309.953 107.847 310.459 103.66C310.993 99.2537 311.614 94.9988 312.321 90.8956C306.76 91.6255 301.104 90.9795 295.85 89.015C291.351 87.0456 288.54 83.9569 288.545 81.6924C288.55 79.7571 289.326 77.9035 290.703 76.5395C292.079 75.1755 293.944 74.4129 295.886 74.4195L313.126 74.4778C332.17 85.489 348.209 74.5965 348.209 74.5965L365.33 74.6544C369.316 74.6679 372.656 77.8072 372.752 81.7747C372.759 82.1836 372.732 82.5926 372.67 82.9969Z" fill="white"/>
<path opacity="0.6" d="M336.049 114.692L325.066 114.655C324.58 114.653 324.114 114.844 323.77 115.185C323.426 115.526 323.232 115.989 323.231 116.473L323.191 132.768C323.181 136.741 320.034 140.067 316.053 140.159L313.329 139.706L309.767 139.112C308.979 138.981 308.245 138.63 307.649 138.1C307.053 137.57 306.621 136.882 306.402 136.116C306.337 135.723 306.283 135.36 306.241 135.04C306.072 133.742 306.1 133.095 306.463 133.621C308.005 135.87 315.829 137.004 319.17 135.655C322.512 134.306 320.568 122.353 321.949 115.705C323.33 109.056 336.049 114.692 336.049 114.692Z" fill="url(#paint2_radial_0_10)"/>
<path d="M348.199 74.5987C348.199 74.5987 332.16 85.491 313.116 74.48C314.578 73.1376 316.316 72.1275 318.208 71.5193C321.512 74.807 325.985 76.6609 330.652 76.6766C335.319 76.6924 339.801 74.8689 343.121 71.6035C345.01 72.2246 346.743 73.2465 348.199 74.5987Z" fill="white" stroke="#172338" stroke-width="0.553858" stroke-miterlimit="10"/>
<path d="M330.652 76.6761C325.987 76.6634 321.514 74.8135 318.209 71.5295C319.589 71.0875 321.031 70.8659 322.482 70.8729L338.864 70.9284C340.314 70.9311 341.755 71.1625 343.134 71.6138C339.814 74.8794 335.331 76.7029 330.665 76.6862L330.652 76.6761Z" fill="white" stroke="#172338" stroke-width="0.553858" stroke-miterlimit="10"/>
<path d="M352.678 52.72C352.667 57.3926 350.788 64.005 347.464 67.2981L343.172 71.559L343.127 71.6034C339.807 74.8682 335.325 76.6915 330.658 76.6757C325.992 76.6598 321.519 74.8064 318.214 71.5191L318.17 71.4744L313.893 67.1846C312.239 65.5268 310.949 63.0412 310.077 60.3866C309.235 57.8644 308.787 55.2285 308.75 52.5713C308.856 50.2688 309.315 47.9964 310.113 45.8335C313.776 35.941 323.227 32.3504 324.002 32.0712C325.201 31.6388 326.435 31.3093 327.691 31.0863C328.709 30.9062 329.738 30.7946 330.771 30.7521C333.081 30.8598 335.362 31.3202 337.533 32.117C338.307 32.4014 347.74 36.0559 351.354 45.973C352.139 48.1416 352.586 50.4171 352.678 52.72Z" fill="white" stroke="#172338" stroke-width="0.553858" stroke-miterlimit="10"/>
<path d="M348.199 74.5987C348.199 74.5987 332.16 85.491 313.116 74.48C314.578 73.1376 316.316 72.1275 318.208 71.5193C321.512 74.807 325.985 76.6609 330.652 76.6766C335.319 76.6924 339.801 74.8689 343.121 71.6035C345.01 72.2246 346.743 73.2465 348.199 74.5987Z" fill="url(#paint3_radial_0_10)" fill-opacity="0.3" stroke="#172338" stroke-width="0.553858" stroke-miterlimit="10"/>
<path opacity="0.3" d="M352.678 52.72C352.667 57.3926 350.788 64.005 347.464 67.2981L343.172 71.559L343.127 71.6034C339.807 74.8682 335.325 76.6915 330.658 76.6757C325.992 76.6598 321.519 74.8064 318.214 71.5191L318.17 71.4744L313.893 67.1846C312.239 65.5268 310.949 63.0412 310.077 60.3866C309.235 57.8644 308.787 55.2285 308.75 52.5713C308.856 50.2688 309.315 47.9964 310.113 45.8335C313.776 35.941 323.227 32.3504 324.002 32.0712C325.201 31.6388 326.435 31.3093 327.691 31.0863C328.709 30.9062 329.738 30.7946 330.771 30.7521C333.081 30.8598 335.362 31.3202 337.533 32.117C338.307 32.4014 347.74 36.0559 351.354 45.973C352.139 48.1416 352.586 50.4171 352.678 52.72Z" fill="url(#paint4_radial_0_10)" stroke="#172338" stroke-width="0.553858" stroke-miterlimit="10"/>
<path d="M350.849 51.9496C350.757 50.2777 350.343 48.6389 349.629 47.1228C346.308 40.0285 337.652 37.4105 336.951 37.2054C334.931 36.629 332.849 36.2999 330.751 36.2256C328.651 36.2854 326.566 36.6003 324.543 37.1634C323.832 37.3638 315.179 39.9232 311.818 46.9949C311.097 48.5064 310.674 50.1422 310.572 51.8133C310.564 55.1542 312.261 59.8934 315.294 62.2653L319.218 65.3356C322.251 67.7096 326.369 69.0514 330.667 69.0659C334.964 69.0804 339.091 67.7666 342.135 65.4132L346.075 62.3695C349.123 60.0181 350.841 55.2904 350.849 51.9496Z" fill="#504C57" stroke="#172338" stroke-width="0.553858" stroke-miterlimit="10"/>
<path d="M349.452 51.9977C349.365 50.4426 348.979 48.9182 348.316 47.5077C345.226 40.9068 337.179 38.4692 336.516 38.2785C334.637 37.7427 332.701 37.4366 330.748 37.367C328.795 37.4234 326.857 37.7164 324.975 38.2394C324.314 38.4257 316.253 40.8088 313.133 47.3886C312.462 48.7952 312.068 50.3176 311.973 51.8729C311.965 54.9826 313.545 59.391 316.367 61.6001L320.021 64.4505C322.843 66.6636 326.674 67.9091 330.673 67.9227C334.672 67.9362 338.511 66.7146 341.346 64.5247L345.014 61.699C347.845 59.505 349.444 55.1074 349.452 51.9977Z" fill="url(#paint5_radial_0_10)"/>
<path d="M342.403 43.6149C341.702 42.3213 347.377 47.2807 347.364 52.7541C347.35 58.2275 344.356 60.0419 344.356 60.0419C344.356 60.0419 348.356 54.5819 342.403 43.6149Z" fill="white"/>
<path d="M320.887 100.601C320.239 99.6825 319.805 98.6316 319.617 97.5248L319.627 93.4402C319.731 92.5261 320.027 91.3294 320.912 90.3734C322.376 88.7889 324.218 89.2047 330.622 89.1353C333.644 89.1009 338.913 88.9461 340.327 90.4388C340.804 90.954 341.17 91.5611 341.403 92.2225C341.534 92.6409 341.601 93.0762 341.603 93.5145L341.593 97.5992C341.399 98.704 340.961 99.7519 340.31 100.666C336.442 105.962 324.718 105.923 320.887 100.601Z" fill="url(#paint6_radial_0_10)" stroke="#172338" stroke-width="0.313454" stroke-miterlimit="10"/>
<path d="M322.355 100.038C321.804 99.2581 321.435 98.365 321.277 97.425L321.285 93.9544C321.373 93.1786 321.623 92.1617 322.376 91.3494C323.62 90.0035 325.183 90.3554 330.624 90.2965C333.194 90.2691 337.666 90.1383 338.87 91.4048C339.276 91.8421 339.587 92.3583 339.784 92.9205C339.893 93.2759 339.948 93.6459 339.947 94.0177L339.939 97.4884C339.774 98.4269 339.401 99.3165 338.849 100.093C335.565 104.593 325.598 104.559 322.355 100.038Z" stroke="#172338" stroke-width="0.313454" stroke-miterlimit="10"/>
<path d="M323.811 99.4748C323.358 98.8333 323.054 98.0985 322.923 97.3251L322.93 94.4686C322.994 93.6773 323.309 92.9264 323.828 92.3249C324.848 91.2176 326.139 91.5077 330.616 91.4577C332.73 91.4368 336.412 91.3274 337.401 92.3708C337.735 92.7313 337.99 93.1556 338.153 93.6179C338.244 93.9104 338.289 94.215 338.287 94.5205L338.28 97.3771C338.145 98.1494 337.839 98.8817 337.384 99.5207C334.686 103.224 326.491 103.196 323.811 99.4748Z" stroke="#172338" stroke-width="0.313454" stroke-miterlimit="10"/>
<path d="M325.273 98.9207C324.918 98.417 324.68 97.8404 324.578 97.2338L324.583 94.9833C324.632 94.3623 324.879 93.7732 325.287 93.3014C326.091 92.4322 327.101 92.6604 330.614 92.622C332.272 92.603 335.162 92.5196 335.937 93.3373C336.2 93.6199 336.401 93.9529 336.528 94.3163C336.6 94.5454 336.635 94.7841 336.635 95.0242L336.629 97.2662C336.522 97.8723 336.282 98.4474 335.923 98.9486C333.807 101.854 327.375 101.833 325.273 98.9207Z" stroke="#172338" stroke-width="0.313454" stroke-miterlimit="10"/>
<path d="M326.734 98.3496C326.477 97.9856 326.305 97.5698 326.228 97.1315L326.232 95.51C326.27 95.0612 326.449 94.6359 326.744 94.2954C327.327 93.6648 328.061 93.8291 330.61 93.8016C331.814 93.7891 333.912 93.7272 334.473 94.3213C334.664 94.526 334.811 94.7682 334.903 95.0322C334.954 95.1985 334.98 95.3717 334.979 95.5454L334.975 97.1669C334.897 97.6047 334.722 98.0196 334.463 98.3815C332.931 100.483 328.253 100.467 326.734 98.3496Z" stroke="#172338" stroke-width="0.313454" stroke-miterlimit="10"/>
<path d="M328.197 97.787C328.036 97.5598 327.929 97.2997 327.883 97.0257L327.886 96.0122C327.908 95.7322 328.019 95.4661 328.203 95.2529C328.566 94.861 329.017 94.9639 330.608 94.9469C331.356 94.9394 332.662 94.9015 333.011 95.2694C333.13 95.3972 333.221 95.548 333.279 95.7122C333.31 95.8155 333.327 95.9229 333.327 96.0307L333.324 97.0441C333.276 97.3177 333.167 97.5768 333.005 97.8035C332.05 99.1139 329.145 99.1039 328.197 97.787Z" stroke="#172338" stroke-width="0.313454" stroke-miterlimit="10"/>
<path d="M341.053 124.334C340.771 123.805 340.588 123.228 340.514 122.633L340.52 120.373C340.551 119.769 340.739 119.184 341.067 118.676C341.679 117.798 342.472 118.026 345.196 117.985C346.481 117.967 348.721 117.879 349.323 118.704C349.682 119.199 349.87 119.795 349.862 120.404L349.857 122.665C349.779 123.259 349.593 123.834 349.309 124.362C347.667 127.296 342.681 127.279 341.053 124.334Z" fill="#98A3A2" stroke="#172338" stroke-width="0.13845" stroke-miterlimit="10"/>
<path d="M341.65 124.036C341.409 123.582 341.253 123.089 341.19 122.579L341.195 120.645C341.222 120.129 341.383 119.629 341.662 119.193C342.195 118.443 342.866 118.638 345.195 118.597C346.295 118.58 348.211 118.506 348.726 119.217C348.905 119.474 349.037 119.76 349.117 120.062C349.164 120.261 349.188 120.465 349.187 120.67L349.182 122.604C349.115 123.113 348.957 123.605 348.714 124.058C347.309 126.565 343.037 126.55 341.65 124.036Z" fill="#98A3A2" stroke="#172338" stroke-width="0.13845" stroke-miterlimit="10"/>
<path d="M342.248 123.736C342.047 123.356 341.917 122.944 341.864 122.519L341.868 120.911C341.89 120.479 342.024 120.06 342.258 119.696C342.701 119.071 343.257 119.235 345.194 119.205C346.11 119.19 347.702 119.128 348.128 119.716C348.277 119.929 348.387 120.166 348.454 120.416C348.493 120.583 348.512 120.754 348.511 120.925L348.507 122.533C348.454 122.958 348.322 123.37 348.118 123.748C346.951 125.84 343.406 125.828 342.248 123.736Z" fill="#98A3A2" stroke="#172338" stroke-width="0.13845" stroke-miterlimit="10"/>
<path d="M342.842 123.436C342.682 123.136 342.579 122.809 342.537 122.472L342.54 121.191C342.558 120.849 342.665 120.518 342.85 120.229C343.202 119.731 343.648 119.863 345.19 119.831C345.918 119.822 347.187 119.771 347.528 120.245C347.731 120.525 347.838 120.863 347.832 121.209L347.829 122.49C347.786 122.827 347.681 123.153 347.52 123.452C346.592 125.113 343.767 125.104 342.842 123.436Z" fill="#98A3A2" stroke="#172338" stroke-width="0.13845" stroke-miterlimit="10"/>
<path d="M343.44 123.136C343.321 122.912 343.245 122.669 343.214 122.418L343.217 121.463C343.23 121.209 343.309 120.962 343.446 120.748C343.709 120.378 344.041 120.474 345.19 120.456C345.733 120.458 346.679 120.41 346.933 120.76C347.02 120.883 347.085 121.02 347.125 121.166C347.149 121.264 347.161 121.365 347.161 121.466L347.158 122.421C347.125 122.672 347.047 122.914 346.927 123.138C346.234 124.386 344.129 124.379 343.44 123.136Z" fill="#98A3A2" stroke="#172338" stroke-width="0.13845" stroke-miterlimit="10"/>
<path d="M344.038 122.836C343.959 122.69 343.908 122.53 343.889 122.365L343.89 121.737C343.898 121.569 343.95 121.406 344.042 121.265C344.214 121.022 344.431 121.086 345.188 121.066C345.546 121.067 346.166 121.035 346.334 121.272C346.392 121.356 346.435 121.449 346.462 121.547C346.476 121.613 346.484 121.681 346.483 121.75L346.482 122.378C346.46 122.543 346.409 122.701 346.33 122.848C345.875 123.659 344.49 123.654 344.038 122.836Z" fill="#98A3A2" stroke="#172338" stroke-width="0.13845" stroke-miterlimit="10"/>
<path d="M310.17 123.09C309.938 122.522 309.807 121.918 309.784 121.305L309.976 118.991C310.056 118.378 310.288 117.795 310.65 117.294C311.333 116.445 312.075 116.74 314.741 116.903C315.998 116.982 318.199 117.067 318.713 117.958C318.893 118.285 319.016 118.639 319.079 119.006C319.112 119.25 319.119 119.497 319.099 119.743L318.906 122.058C318.783 122.658 318.554 123.232 318.231 123.754C316.391 126.637 311.511 126.241 310.17 123.09Z" fill="#98A3A2" stroke="#172338" stroke-width="0.13845" stroke-miterlimit="10"/>
<path d="M310.784 122.827C310.586 122.342 310.474 121.826 310.454 121.303L310.618 119.325C310.687 118.802 310.886 118.305 311.195 117.878C311.776 117.152 312.417 117.403 314.688 117.549C315.762 117.618 317.635 117.691 318.079 118.452C318.342 118.915 318.458 119.447 318.409 119.976L318.245 121.952C318.138 122.465 317.943 122.955 317.668 123.402C316.092 125.851 311.935 125.508 310.784 122.827Z" fill="#98A3A2" stroke="#172338" stroke-width="0.13845" stroke-miterlimit="10"/>
<path d="M311.4 122.564C311.236 122.162 311.143 121.735 311.127 121.301L311.263 119.662C311.318 119.228 311.482 118.815 311.74 118.461C312.223 117.855 312.758 118.06 314.637 118.19C315.526 118.245 317.077 118.305 317.446 118.937C317.574 119.167 317.661 119.418 317.705 119.678C317.729 119.851 317.734 120.026 317.72 120.201L317.583 121.838C317.497 122.263 317.335 122.67 317.106 123.039C315.8 125.074 312.353 124.787 311.4 122.564Z" fill="#98A3A2" stroke="#172338" stroke-width="0.13845" stroke-miterlimit="10"/>
<path d="M312.015 122.3C311.884 121.981 311.81 121.642 311.797 121.297L311.904 119.996C311.95 119.653 312.081 119.326 312.285 119.045C312.666 118.568 313.085 118.733 314.582 118.828C315.29 118.873 316.522 118.922 316.818 119.421C316.99 119.726 317.066 120.075 317.035 120.423L316.926 121.724C316.857 122.062 316.729 122.385 316.548 122.678C315.506 124.292 312.771 124.064 312.015 122.3Z" fill="#98A3A2" stroke="#172338" stroke-width="0.13845" stroke-miterlimit="10"/>
<path d="M312.629 122.036C312.532 121.801 312.477 121.551 312.468 121.296L312.548 120.333C312.581 120.078 312.677 119.835 312.828 119.627C313.112 119.275 313.421 119.398 314.529 119.468C315.052 119.501 315.965 119.536 316.18 119.908C316.255 120.043 316.306 120.19 316.331 120.342C316.342 120.444 316.342 120.547 316.33 120.649L316.251 121.611C316.199 121.861 316.104 122.1 315.97 122.317C315.213 123.511 313.189 123.344 312.629 122.036Z" fill="#98A3A2" stroke="#172338" stroke-width="0.13845" stroke-miterlimit="10"/>
<path d="M313.242 121.773C313.179 121.62 313.145 121.457 313.139 121.292L313.189 120.668C313.213 120.503 313.275 120.346 313.372 120.21C313.555 119.981 313.756 120.061 314.476 120.106C314.814 120.128 315.406 120.152 315.546 120.392C315.594 120.48 315.628 120.575 315.645 120.674C315.653 120.741 315.653 120.809 315.644 120.877L315.592 121.501C315.559 121.663 315.498 121.818 315.412 121.958C314.919 122.731 313.606 122.621 313.242 121.773Z" fill="#98A3A2" stroke="#172338" stroke-width="0.13845" stroke-miterlimit="10"/>
<path d="M345.105 126.892L345.073 140.105C345.08 140.201 345.122 140.291 345.193 140.357C345.264 140.422 345.357 140.459 345.453 140.46C345.55 140.46 345.643 140.424 345.714 140.358C345.785 140.293 345.828 140.204 345.836 140.108L345.868 126.894C345.861 126.798 345.818 126.709 345.747 126.643C345.677 126.577 345.584 126.54 345.487 126.54C345.391 126.539 345.298 126.576 345.226 126.641C345.156 126.706 345.113 126.796 345.105 126.892Z" fill="#172338"/>
<path d="M372.67 82.9989C372.42 84.7412 371.548 86.3337 370.213 87.484C368.877 88.6342 367.169 89.2647 365.403 89.2587C360.14 91.1877 354.48 91.7953 348.923 91.0275C349.668 96.6293 350.406 101.067 350.722 103.805C351.78 112.931 352.39 121.565 352.443 129.656C352.465 132.927 351.988 134.624 351.04 136.002C351.902 122.895 347.504 98.2333 346.163 91.1153C346.122 90.8991 346.133 90.676 346.195 90.4648C346.257 90.2537 346.368 90.0599 346.519 89.8992C346.671 89.7389 346.858 89.6161 347.065 89.5412C347.273 89.4663 347.496 89.4414 347.715 89.4684C357.188 90.5951 367.737 85.6847 372.67 82.9989Z" fill="url(#paint7_radial_0_10)" fill-opacity="0.6"/>
<path d="M372.67 82.9989C372.421 84.7412 371.548 86.3337 370.213 87.484C368.877 88.6347 367.169 89.2647 365.404 89.2587C360.14 91.1877 354.48 91.7953 348.924 91.0275C349.668 96.6293 350.406 101.067 350.723 103.805C351.781 112.931 352.39 121.565 352.443 129.656C352.466 132.927 351.988 134.625 351.041 136.002C350.491 136.801 349.784 137.494 348.924 138.322C347.619 139.583 346.275 140.28 345.142 140.276C343.2 140.269 341.339 139.494 339.969 138.12C338.599 136.748 337.832 134.888 337.837 132.953L337.877 116.533C337.878 116.049 337.687 115.584 337.344 115.241C337.002 114.897 336.537 114.704 336.051 114.702L325.067 114.665C324.582 114.663 324.116 114.854 323.772 115.195C323.428 115.536 323.234 115.999 323.232 116.483L323.192 132.784C323.183 136.757 320.036 140.083 316.055 140.175L313.331 139.722L309.768 139.128C309.165 139.028 308.591 138.798 308.086 138.455C307.58 138.112 307.155 137.664 306.84 137.141C306.526 136.619 306.328 136.035 306.262 135.429C306.197 134.823 306.263 134.211 306.458 133.633L308.567 127.381C308.68 123.622 308.898 119.788 309.215 115.846C309.532 111.904 309.949 107.855 310.455 103.669C310.989 99.2623 311.61 95.0068 312.317 90.9037C306.757 91.6336 301.1 90.9881 295.846 89.0236C291.348 87.0542 288.536 83.9655 288.541 81.701C288.546 79.7653 289.322 77.9117 290.699 76.5478C292.075 75.1838 293.94 74.4212 295.882 74.4278L313.122 74.4861C332.167 85.4976 348.205 74.6048 348.205 74.6048L365.326 74.6627C369.312 74.6762 372.653 77.8154 372.749 81.7828C372.757 82.1897 372.73 82.5965 372.67 82.9989Z" stroke="#172338" stroke-width="0.553858" stroke-miterlimit="10"/>
<path d="M357.673 77.6392C358.26 80.9541 358.545 84.3149 358.525 87.6807C358.522 88.6377 358.492 89.5937 358.432 90.5487C358.405 91.0375 359.168 91.04 359.195 90.5517C359.392 87.1395 359.275 83.7163 358.846 80.3251C358.724 79.3571 358.577 78.3937 358.407 77.4349C358.323 76.9542 357.595 77.1544 357.673 77.6351V77.6392Z" fill="#172338"/>
<path d="M354.16 74.8339L353.957 75.3846L355.839 76.9681L359.48 77.0047L361.52 75.5358L361.471 74.7086L356.272 74.691L354.16 74.8339Z" fill="#172338"/>
<path d="M289.698 75.3452L289.727 75.321C289.901 75.1756 290.103 75.0672 290.32 75.0024C290.538 74.9376 290.767 74.9178 290.992 74.9441C291.218 74.9705 291.436 75.0426 291.632 75.1558C291.829 75.2691 292.001 75.4212 292.137 75.6028L292.234 75.7329C292.39 75.9424 292.495 76.1855 292.54 76.4427C292.585 76.6999 292.569 76.9639 292.493 77.2136L290.797 82.7442C290.733 82.9534 290.627 83.1481 290.487 83.3168C290.347 83.485 290.175 83.6243 289.981 83.7267L289.777 83.8375C289.549 83.9578 289.295 84.0237 289.037 84.0297C288.778 84.0357 288.522 83.9823 288.288 83.8724C288.053 83.7631 287.848 83.6009 287.687 83.3992C287.526 83.197 287.415 82.9604 287.362 82.7083C287.303 82.4317 287.316 82.1451 287.4 81.8751L289.178 76.13C289.271 75.8233 289.452 75.5506 289.698 75.3452Z" fill="white" stroke="#172338" stroke-width="0.553858" stroke-miterlimit="10"/>
<path d="M290.412 77.0346L289.075 81.8976C288.967 82.2915 288.768 82.6474 288.501 82.926C288.234 83.2051 287.908 83.3958 287.559 83.4787L285.032 84.0737C284.862 84.1142 284.688 84.1276 284.516 84.1142L281.523 83.887C281.427 83.8785 281.332 83.8631 281.239 83.8406L278.61 83.1731C278.35 83.1082 278.107 82.9799 277.896 82.7977C277.685 82.6149 277.511 82.3823 277.385 82.1137L277.138 81.592L276.745 80.7623C276.576 80.4039 276.498 79.9951 276.519 79.5807L276.717 75.7344C276.739 75.2876 276.877 74.8541 277.112 74.4904L277.57 73.7795C277.793 73.4352 278.093 73.1678 278.436 73.0083C278.779 72.8487 279.151 72.8035 279.508 72.8779L280.993 73.1928C281.258 73.2506 281.532 73.2422 281.798 73.1684C282.064 73.0945 282.315 72.9568 282.536 72.7642C282.756 72.5716 282.94 72.3286 283.076 72.0511C283.211 71.7736 283.296 71.468 283.324 71.1544L283.337 71.0288C283.379 70.5794 283.537 70.1504 283.79 69.798C284.043 69.4455 284.379 69.186 284.755 69.053L285.055 68.9472C285.461 68.8025 285.892 68.8136 286.282 68.9788C286.673 69.1441 287.002 69.4543 287.219 69.8626L288.176 71.6926L290.179 75.1287C290.34 75.4005 290.445 75.7131 290.485 76.0431C290.525 76.3731 290.501 76.712 290.412 77.0346Z" fill="white"/>
<path d="M290.412 77.0346L289.075 81.8976C288.967 82.2915 288.768 82.6475 288.501 82.926C288.234 83.2051 287.908 83.3958 287.559 83.4787L285.032 84.0738C284.862 84.1142 284.688 84.1277 284.516 84.1142L281.523 83.887C281.427 83.8786 281.332 83.8631 281.239 83.8406L278.61 83.1731C278.35 83.1082 278.107 82.9799 277.896 82.7977C277.685 82.615 277.511 82.3824 277.385 82.1138L277.138 81.5921L276.745 80.7623C276.576 80.4039 276.498 79.9951 276.519 79.5807L276.717 75.7345C276.739 75.2876 276.877 74.8541 277.112 74.4905L277.57 73.7795C277.793 73.4353 278.093 73.1679 278.436 73.0083C278.779 72.8487 279.151 72.8035 279.508 72.8779L280.993 73.1928C281.258 73.2506 281.532 73.2423 281.798 73.1684C282.064 73.0945 282.315 72.9568 282.536 72.7642C282.756 72.5716 282.94 72.3286 283.076 72.0511C283.211 71.7736 283.296 71.4681 283.324 71.1544L283.337 71.0288C283.379 70.5794 283.537 70.1505 283.79 69.798C284.043 69.4456 284.379 69.186 284.755 69.053L285.055 68.9472C285.461 68.8026 285.892 68.8136 286.282 68.9788C286.673 69.1441 287.002 69.4544 287.219 69.8626L288.176 71.6926L290.179 75.1287C290.34 75.4005 290.445 75.7131 290.485 76.0432C290.525 76.3732 290.501 76.7121 290.412 77.0346Z" fill="url(#paint8_radial_0_10)" fill-opacity="0.6"/>
<path opacity="0.6" d="M290.413 77.0345L289.075 81.8976C288.967 82.2915 288.769 82.6474 288.502 82.926C288.234 83.2051 287.909 83.3958 287.56 83.4787L285.033 84.0737C284.863 84.1142 284.689 84.1276 284.517 84.1137L281.524 83.887C281.428 83.8786 281.333 83.8631 281.24 83.8406L278.611 83.1731C278.351 83.1077 278.108 82.9799 277.897 82.7977C277.686 82.615 277.512 82.3824 277.386 82.1138L277.139 81.5921C278.395 81.3599 280.866 81.8661 282.165 82.0628C283.868 82.3174 287.413 82.8696 288.007 81.5397C288.601 80.2097 287.723 78.8742 288.125 78.7385C290.573 77.914 289.102 73.1933 286.945 72.023C286.024 71.5214 286.213 69.2348 283.643 70.484C283.869 70.2297 284.451 69.1548 284.762 69.0508L285.063 68.9451C285.468 68.8025 285.897 68.815 286.286 68.9804C286.675 69.146 287.003 69.4556 287.219 69.8626L288.177 71.6925L290.18 75.1286C290.341 75.4005 290.445 75.7131 290.486 76.0431C290.526 76.3731 290.501 76.712 290.413 77.0345Z" fill="url(#paint9_radial_0_10)"/>
<path d="M290.412 77.0346L289.075 81.8976C288.967 82.2915 288.768 82.6474 288.501 82.926C288.234 83.2051 287.908 83.3958 287.559 83.4787L285.032 84.0737C284.862 84.1142 284.688 84.1276 284.516 84.1142L281.523 83.887C281.427 83.8785 281.332 83.8631 281.239 83.8406L278.61 83.1731C278.35 83.1082 278.107 82.9799 277.896 82.7977C277.685 82.6149 277.511 82.3823 277.385 82.1137L277.138 81.592L276.745 80.7623C276.576 80.4039 276.498 79.9951 276.519 79.5807L276.717 75.7344C276.739 75.2876 276.877 74.8541 277.112 74.4904L277.57 73.7795C277.793 73.4352 278.093 73.1678 278.436 73.0083C278.779 72.8487 279.151 72.8035 279.508 72.8779L280.993 73.1928C281.258 73.2506 281.532 73.2422 281.798 73.1684C282.064 73.0945 282.315 72.9568 282.536 72.7642C282.756 72.5716 282.94 72.3286 283.076 72.0511C283.211 71.7736 283.296 71.468 283.324 71.1544L283.337 71.0288C283.379 70.5794 283.537 70.1504 283.79 69.798C284.043 69.4455 284.379 69.186 284.755 69.053L285.055 68.9472C285.461 68.8025 285.892 68.8136 286.282 68.9788C286.673 69.1441 287.002 69.4543 287.219 69.8626L288.176 71.6926L290.179 75.1287C290.34 75.4005 290.445 75.7131 290.485 76.0431C290.525 76.3731 290.501 76.712 290.412 77.0346Z" stroke="#172338" stroke-width="0.553858" stroke-miterlimit="10"/>
<path d="M283.264 79.9152L284.184 80.1491L285.414 80.2897C285.415 80.2899 285.416 80.2895 285.417 80.2887L286.686 78.8902C286.938 78.4184 287.508 77.3533 287.767 76.868" stroke="#172338" stroke-width="0.554858"/>
<path d="M276.706 75.4608L278.276 75.8407C278.81 75.8354 280.014 75.8232 280.563 75.8177" stroke="#172338" stroke-width="0.554858"/>
<path d="M276.535 77.8595L278.105 78.2394C278.639 78.234 279.844 78.2219 280.392 78.2164" stroke="#172338" stroke-width="0.554858"/>
<path d="M276.535 79.8789L278.105 80.2588C278.639 80.2534 279.844 80.2413 280.392 80.2358" stroke="#172338" stroke-width="0.554858"/>
<path d="M369.662 76.1614L369.63 76.1413C369.438 76.0206 369.223 75.9403 368.998 75.9053C368.774 75.8704 368.545 75.8814 368.325 75.9379C368.105 75.9944 367.899 76.0951 367.719 76.2337C367.54 76.3724 367.391 76.5461 367.281 76.7443L367.203 76.8862C367.077 77.1148 367.006 77.3698 366.997 77.6307C366.988 77.8915 367.04 78.151 367.15 78.3881L369.588 83.6394C369.681 83.8381 369.812 84.0168 369.974 84.165C370.136 84.3133 370.325 84.4281 370.532 84.503L370.749 84.5854C370.992 84.6742 371.252 84.7052 371.509 84.6767C371.766 84.6478 372.013 84.5599 372.23 84.4201C372.446 84.2804 372.628 84.0921 372.759 83.87C372.891 83.6483 372.969 83.3992 372.987 83.1421C373.007 82.86 372.955 82.578 372.835 82.3219L370.285 76.8689C370.151 76.5776 369.934 76.3317 369.662 76.1614Z" fill="white" stroke="#172338" stroke-width="0.553858" stroke-miterlimit="10"/>
<path d="M369.184 77.931L371.176 82.5691C371.337 82.945 371.583 83.271 371.886 83.5111C372.189 83.7512 372.538 83.897 372.895 83.9319L375.48 84.1815C375.654 84.199 375.828 84.189 375.997 84.1521L378.931 83.525C379.025 83.5041 379.116 83.4761 379.206 83.4412L381.719 82.4262C381.968 82.3269 382.191 82.1676 382.375 81.9584C382.559 81.7493 382.7 81.4952 382.788 81.2121L382.961 80.6619L383.236 79.7873C383.354 79.4096 383.376 78.9938 383.298 78.5861L382.574 74.8021C382.491 74.3623 382.295 73.9514 382.012 73.6227L381.46 72.98C381.192 72.6689 380.858 72.4443 380.496 72.3323C380.135 72.2203 379.76 72.2254 379.417 72.3471L377.988 72.8588C377.734 72.9516 377.461 72.9802 377.188 72.9428C376.914 72.9054 376.646 72.8026 376.402 72.6414C376.157 72.4803 375.941 72.2642 375.769 72.0076C375.596 71.7509 375.47 71.4595 375.4 71.1525L375.37 71.0298C375.266 70.5902 375.051 70.1865 374.752 69.8714C374.453 69.5562 374.084 69.3441 373.694 69.2629L373.382 69.1985C372.96 69.1097 372.535 69.1786 372.17 69.3948C371.806 69.6109 371.523 69.9625 371.364 70.3962L370.666 72.338L369.154 76.0114C369.031 76.3023 368.97 76.6261 368.976 76.9585C368.981 77.2909 369.052 77.6233 369.184 77.931Z" fill="white"/>
<path d="M369.184 77.931L371.176 82.5691C371.337 82.945 371.583 83.271 371.886 83.5111C372.189 83.7512 372.538 83.897 372.895 83.9319L375.48 84.1815C375.654 84.199 375.828 84.189 375.997 84.1521L378.931 83.525C379.025 83.5041 379.116 83.4761 379.206 83.4412L381.719 82.4262C381.968 82.3269 382.191 82.1676 382.375 81.9584C382.559 81.7493 382.7 81.4952 382.788 81.2121L382.961 80.6619L383.236 79.7873C383.354 79.4096 383.376 78.9938 383.298 78.5861L382.574 74.8021C382.491 74.3623 382.295 73.9514 382.012 73.6227L381.46 72.98C381.192 72.6689 380.858 72.4443 380.496 72.3323C380.135 72.2203 379.76 72.2254 379.417 72.3471L377.988 72.8588C377.734 72.9516 377.461 72.9802 377.188 72.9428C376.914 72.9054 376.646 72.8026 376.402 72.6414C376.157 72.4803 375.941 72.2642 375.769 72.0076C375.596 71.7509 375.47 71.4595 375.4 71.1525L375.37 71.0298C375.266 70.5902 375.051 70.1865 374.752 69.8714C374.453 69.5562 374.084 69.3441 373.694 69.2629L373.382 69.1985C372.96 69.1097 372.535 69.1786 372.17 69.3948C371.806 69.6109 371.523 69.9625 371.364 70.3962L370.666 72.338L369.154 76.0114C369.031 76.3023 368.97 76.6261 368.976 76.9585C368.981 77.2909 369.052 77.6233 369.184 77.931Z" fill="url(#paint10_radial_0_10)" fill-opacity="0.6"/>
<path opacity="0.6" d="M369.184 77.9309L371.177 82.569C371.338 82.945 371.583 83.271 371.886 83.5111C372.189 83.7512 372.538 83.897 372.895 83.9314L375.48 84.1815C375.654 84.199 375.828 84.189 375.997 84.1521L378.931 83.525C379.025 83.5041 379.116 83.4756 379.206 83.4411L381.719 82.4262C381.968 82.3269 382.191 82.1671 382.375 81.9584C382.559 81.7493 382.699 81.4952 382.788 81.2121L382.961 80.6619C381.684 80.601 379.305 81.4347 378.045 81.8037C376.393 82.2854 372.957 83.3088 372.186 82.0707C371.415 80.8332 372.102 79.3918 371.684 79.3115C369.146 78.8236 369.956 73.949 371.932 72.4996C372.776 71.8789 372.275 69.6389 374.993 70.531C374.734 70.3095 374.009 69.3227 373.687 69.2616L373.374 69.1973C372.954 69.1105 372.53 69.1805 372.167 69.3968C371.805 69.613 371.522 69.9638 371.364 70.3961L370.666 72.3378L369.153 76.0113C369.032 76.3022 368.971 76.626 368.976 76.9584C368.981 77.2908 369.052 77.6232 369.184 77.9309Z" fill="url(#paint11_radial_0_10)"/>
<path d="M369.184 77.931L371.176 82.5691C371.337 82.945 371.583 83.271 371.886 83.5111C372.189 83.7512 372.538 83.897 372.895 83.9319L375.48 84.1815C375.654 84.199 375.828 84.189 375.997 84.1521L378.931 83.525C379.025 83.5041 379.116 83.4761 379.206 83.4412L381.719 82.4262C381.968 82.3269 382.191 82.1676 382.375 81.9584C382.559 81.7493 382.7 81.4952 382.788 81.2121L382.961 80.6619L383.236 79.7873C383.354 79.4096 383.376 78.9938 383.298 78.5861L382.574 74.8021C382.491 74.3623 382.295 73.9514 382.012 73.6227L381.46 72.98C381.192 72.6689 380.858 72.4443 380.496 72.3323C380.135 72.2203 379.76 72.2254 379.417 72.3471L377.988 72.8588C377.734 72.9516 377.461 72.9802 377.188 72.9428C376.914 72.9054 376.646 72.8026 376.402 72.6414C376.157 72.4803 375.941 72.2642 375.769 72.0076C375.596 71.7509 375.47 71.4595 375.4 71.1525L375.37 71.0298C375.266 70.5902 375.051 70.1865 374.752 69.8714C374.453 69.5562 374.084 69.3441 373.694 69.2629L373.382 69.1985C372.96 69.1097 372.535 69.1786 372.17 69.3948C371.806 69.6109 371.523 69.9625 371.364 70.3962L370.666 72.338L369.154 76.0114C369.031 76.3023 368.97 76.6261 368.976 76.9585C368.981 77.2909 369.052 77.6233 369.184 77.931Z" stroke="#172338" stroke-width="0.553858" stroke-miterlimit="10"/>
<path d="M368.884 136.472L382.269 41.4404C382.351 40.8607 381.947 40.3241 381.368 40.2419C380.788 40.1597 380.252 40.5629 380.17 41.1426L366.785 136.174C366.703 136.753 367.107 137.29 367.686 137.372C368.266 137.454 368.802 137.051 368.884 136.472Z" fill="url(#paint12_radial_0_10)" stroke="#182338" stroke-width="0.588647" stroke-miterlimit="10"/>
<path d="M399.878 50.2139C390.54 43.0052 385.385 39.2081 379.399 42.3832L375.778 67.901C386.201 69.1244 390.013 74.639 405.74 63.2406C408.568 61.528 415.293 62.484 415.482 62.5122C423.61 63.1017 427.863 61.0722 434.668 50.9288L430.158 51.4616C428.094 51.6712 426.627 51.8971 424.678 50.684C420.448 47.6438 416.275 47.8208 405.925 51.0718C403.646 51.5309 400.223 50.496 399.878 50.2139Z" fill="url(#paint13_linear_0_10)" stroke="#182338" stroke-width="0.588647"/>
<path d="M382.235 43.3378L378.927 66.6502" stroke="#182338" stroke-width="0.588647" stroke-linecap="round"/>
<mask id="mask0_0_10" style="mask-type:alpha" maskUnits="userSpaceOnUse" x="375" y="40" width="61" height="31">
<path d="M399.878 50.2139C390.54 43.0053 385.385 39.2081 379.399 42.3833L375.778 67.901C386.201 69.1244 390.013 74.6391 405.74 63.2406C408.568 61.528 415.293 62.4841 415.482 62.5122C423.61 63.1018 427.863 61.0722 434.668 50.9288L430.158 51.4616C428.094 51.6712 426.627 51.8971 424.678 50.684C420.448 47.6438 416.275 47.8208 405.925 51.0719C403.646 51.5309 400.223 50.496 399.878 50.2139Z" fill="url(#paint14_linear_0_10)" stroke="#182338" stroke-width="0.588647"/>
</mask>
<g mask="url(#mask0_0_10)">
<path fill-rule="evenodd" clip-rule="evenodd" d="M395.172 49.1235C395.196 48.967 395.087 48.8212 394.93 48.7978L391.661 48.3118C391.504 48.2884 391.358 48.3963 391.334 48.5528L391.225 49.2907C391.201 49.4472 391.31 49.593 391.467 49.6164L392.149 49.7177C392.306 49.7411 392.415 49.8869 392.391 50.0433L392.382 50.105C392.359 50.2615 392.468 50.4073 392.625 50.4307L393.367 50.541C393.524 50.5644 393.671 50.4565 393.694 50.3L393.703 50.2385C393.726 50.082 393.873 49.9742 394.03 49.9976L394.736 50.1024C394.893 50.1258 395.039 50.0179 395.063 49.8615L395.172 49.1235ZM397.828 60.0919C397.322 63.4952 394.138 65.8416 390.717 65.3329C387.295 64.8241 384.932 61.6528 385.438 58.2495C385.944 54.8462 389.128 52.4998 392.549 53.0085C395.971 53.5173 398.334 56.6886 397.828 60.0919ZM399.68 60.3672C399.022 64.7875 394.887 67.8352 390.443 67.1744C385.999 66.5136 382.929 62.3945 383.586 57.9742C384.243 53.5539 388.379 50.5062 392.823 51.167C397.267 51.8278 400.337 55.9469 399.68 60.3672ZM387.61 61.6001L388.3 61.0655L389.734 61.2787L390.205 61.986L387.61 61.6001ZM387.857 58.7393L388.395 59.433L388.185 60.8476L387.473 61.3202L387.857 58.7393ZM390.428 61.7595L389.89 61.0716L390.101 59.6513L390.812 59.1787L390.428 61.7595ZM388.476 55.7331L391.071 56.1189L390.404 56.6571L388.981 56.4456L388.476 55.7331ZM387.87 58.5347L388.254 55.9538L388.797 56.6071L388.584 58.039L387.87 58.5347ZM391.208 56.3931L390.824 58.974L390.281 58.3207L390.493 56.8946L391.208 56.3931ZM392.252 62.2905L392.943 61.7558L394.377 61.969L394.847 62.6763L392.252 62.2905ZM392.5 59.4297L393.038 60.1234L392.827 61.5379L392.116 62.0105L392.5 59.4297ZM395.071 62.4499L394.532 61.762L394.744 60.3416L395.454 59.869L395.071 62.4499ZM393.119 56.4235L395.714 56.8093L395.046 57.3474L393.624 57.1359L393.119 56.4235ZM392.513 59.225L392.896 56.6441L393.44 57.2974L393.227 58.7293L392.513 59.225ZM395.851 57.0835L395.467 59.6643L394.923 59.011L395.136 57.5849L395.851 57.0835ZM381.714 57.8406C381.948 56.2658 382.541 54.8327 383.398 53.611C383.487 53.4845 383.641 53.4214 383.795 53.4443C384.117 53.4922 384.267 53.8733 384.082 54.1397C383.312 55.2479 382.78 56.5445 382.568 57.9676C382.356 59.3908 382.489 60.7862 382.902 62.0703C383.002 62.3789 382.747 62.7 382.425 62.6521C382.272 62.6293 382.143 62.5241 382.094 62.3771C381.63 60.9589 381.479 59.4153 381.714 57.8406ZM399.429 65.1804C399.583 65.2033 399.737 65.1402 399.826 65.0137C400.683 63.792 401.276 62.3589 401.51 60.7842C401.744 59.2094 401.594 57.6658 401.129 56.2476C401.081 56.1006 400.952 55.9955 400.798 55.9726C400.476 55.9247 400.222 56.2458 400.321 56.5544C400.735 57.8386 400.867 59.2339 400.655 60.6571C400.444 62.0802 399.911 63.3768 399.142 64.485C398.957 64.7514 399.107 65.1326 399.429 65.1804ZM386.488 50.7084C386.615 50.6143 386.796 50.6411 386.89 50.7683L387.042 50.9713C387.137 51.0985 387.11 51.2779 386.982 51.372L386.726 51.5608C386.637 51.6261 386.619 51.7505 386.685 51.8388C386.75 51.927 386.732 52.0514 386.643 52.1167L386.298 52.3713C386.209 52.4366 386.084 52.418 386.018 52.3298C385.953 52.2415 385.827 52.2229 385.739 52.2882L385.495 52.4679C385.367 52.562 385.187 52.5352 385.092 52.408L384.941 52.205C384.846 52.0778 384.873 51.8984 385.001 51.8043L386.488 50.7084ZM400.12 54.0634C400.215 54.1906 400.188 54.37 400.06 54.4641L399.856 54.6143C399.729 54.7084 399.548 54.6816 399.454 54.5544L399.263 54.2993C399.198 54.211 399.073 54.1924 398.984 54.2577C398.895 54.323 398.77 54.3044 398.704 54.2161L398.448 53.8721C398.382 53.7838 398.401 53.6594 398.489 53.5941C398.578 53.5287 398.596 53.4042 398.531 53.316L398.35 53.0732C398.255 52.946 398.282 52.7666 398.409 52.6725L398.613 52.5223C398.741 52.4282 398.921 52.455 399.016 52.5822L400.12 54.0634Z" fill="url(#paint15_radial_0_10)"/>
</g>
<path d="M375.578 74.4786L377.017 73.2448L379.549 71.9772C379.998 72.866 379.001 76.1561 379.084 76.3202C379.167 76.4843 379.123 78.0989 379.091 78.8858L377.031 78.8891L375.791 76.9412L375.578 74.4786Z" fill="white"/>
<path d="M379.136 79.2122L378.186 79.2194L377.226 79.0963C377.057 79.0746 376.908 78.9728 376.826 78.8228L376.08 77.4568C376.059 77.4183 376.043 77.3778 376.032 77.3355C375.891 76.7903 375.604 75.6895 375.471 75.177C375.339 74.6676 376.481 73.4987 377.147 72.9056C377.207 72.8526 377.278 72.8152 377.355 72.7945L379.946 72.0966" stroke="#172338" stroke-width="0.554858"/>
<path d="M353.312 74.9302C353.565 75.5438 353.96 76.0886 354.467 76.5194C354.973 76.9502 355.575 77.2545 356.222 77.4071C357.716 77.7283 359.274 77.5304 360.638 76.8464C361.288 76.4837 361.783 75.934 361.862 75.1781C361.861 75.0773 361.821 74.9808 361.75 74.9094C361.678 74.8379 361.582 74.7971 361.481 74.7956C361.38 74.7979 361.285 74.8386 361.213 74.9094C361.143 74.9801 361.102 75.0754 361.1 75.1755C361.035 75.7936 360.371 76.1866 359.85 76.3876C359.089 76.685 358.276 76.8303 357.459 76.8154C356.071 76.7863 354.578 76.0961 354.048 74.7361C354.02 74.6404 353.955 74.5593 353.868 74.5096C353.782 74.4598 353.679 74.4453 353.581 74.469C353.484 74.4961 353.401 74.5604 353.351 74.6479C353.301 74.7353 353.288 74.839 353.314 74.9364L353.312 74.9302Z" fill="#172338"/>
<path d="M304.916 77.3578C304.329 80.741 304.044 84.1711 304.064 87.6063C304.066 88.583 304.097 89.5587 304.156 90.5334C304.184 91.0322 303.421 91.0348 303.394 90.5365C303.197 87.0539 303.313 83.5602 303.743 80.099C303.865 79.1111 304.011 78.1278 304.181 77.1492C304.265 76.6586 304.994 76.863 304.916 77.3536V77.3578Z" fill="#172338"/>
<path d="M308.427 74.5624L308.629 75.1131L306.747 76.6966L303.106 76.7333L301.067 75.2643L301.116 74.4371L306.315 74.4195L308.427 74.5624Z" fill="#172338"/>
<path d="M309.275 74.6587C309.022 75.2723 308.627 75.8171 308.12 76.2479C307.614 76.6787 307.012 76.983 306.365 77.1357C304.871 77.4568 303.313 77.2589 301.949 76.5749C301.299 76.2122 300.804 75.6625 300.725 74.9066C300.726 74.8059 300.766 74.7094 300.837 74.6379C300.909 74.5664 301.005 74.5256 301.106 74.5242C301.207 74.5265 301.302 74.5672 301.373 74.6379C301.444 74.7087 301.485 74.804 301.487 74.9041C301.552 75.5222 302.216 75.9152 302.737 76.1162C303.498 76.4135 304.311 76.5589 305.128 76.5439C306.515 76.5149 308.009 75.8247 308.539 74.4647C308.567 74.369 308.632 74.2878 308.719 74.2381C308.805 74.1884 308.908 74.1739 309.006 74.1975C309.103 74.2247 309.185 74.289 309.236 74.3764C309.286 74.4639 309.299 74.5676 309.273 74.6649L309.275 74.6587Z" fill="#172338"/>
<path d="M313.342 125.779C313.041 127.737 312.745 129.693 312.437 131.655C312.16 133.42 311.867 135.312 310.978 136.89C310.57 137.605 310.015 138.27 309.211 138.526C308.744 138.677 308.942 139.411 309.412 139.261C311.077 138.725 311.897 137.017 312.391 135.472C313.006 133.556 313.225 131.528 313.529 129.548C313.712 128.361 313.894 127.174 314.076 125.988C314.1 125.891 314.086 125.789 314.037 125.702C313.987 125.614 313.907 125.549 313.811 125.519C313.714 125.493 313.61 125.505 313.522 125.555C313.434 125.604 313.37 125.687 313.342 125.783L313.342 125.779Z" fill="#172338"/>
<g opacity="0.1">
<path d="M505.552 205.848L552.426 24.4108C552.712 23.3041 552.047 22.1742 550.94 21.8872C549.834 21.6001 548.705 22.2646 548.419 23.3713L501.545 204.808C501.26 205.915 501.925 207.045 503.031 207.332C504.138 207.619 505.266 206.955 505.552 205.848Z" fill="url(#paint16_radial_0_10)" stroke="#182338" stroke-width="1.14942" stroke-miterlimit="10"/>
<path d="M584.66 45.3064C568.128 29.2662 558.961 20.765 546.648 25.6087L534.01 74.3224C553.963 78.9885 560.148 90.5269 593.169 71.8706C599.032 69.1698 611.87 72.504 612.23 72.6001C627.87 75.5317 636.569 72.5295 652.002 54.3458L643.136 54.3877C639.084 54.3403 636.188 54.4559 632.675 51.6737C625.135 44.8444 617 44.2699 596.203 48.3011C591.682 48.6906 585.268 45.9297 584.66 45.3064Z" fill="url(#paint17_linear_0_10)" stroke="#182338" stroke-width="1.14942"/>
<path d="M551.942 28.0846L540.396 72.5882" stroke="#182338" stroke-width="1.14942" stroke-linecap="round"/>
<mask id="mask1_0_10" style="mask-type:alpha" maskUnits="userSpaceOnUse" x="533" y="23" width="121" height="60">
<path d="M584.66 45.3064C568.128 29.2662 558.961 20.765 546.648 25.6087L534.01 74.3224C553.963 78.9885 560.148 90.5269 593.169 71.8706C599.032 69.1698 611.87 72.504 612.23 72.6001C627.87 75.5317 636.569 72.5295 652.002 54.3458L643.136 54.3877C639.084 54.3403 636.188 54.4559 632.675 51.6737C625.135 44.8444 617 44.2699 596.203 48.3011C591.682 48.6906 585.268 45.9297 584.66 45.3064Z" fill="url(#paint18_linear_0_10)" stroke="#182338" stroke-width="1.14942"/>
</mask>
<g mask="url(#mask1_0_10)">
<path fill-rule="evenodd" clip-rule="evenodd" d="M575.77 42.156C575.85 41.8575 575.671 41.5507 575.371 41.4707L569.137 39.8089C568.837 39.7289 568.529 39.9061 568.45 40.2045L568.074 41.6122C567.995 41.9107 568.174 42.2175 568.474 42.2974L569.773 42.6438C570.073 42.7237 570.252 43.0305 570.172 43.329L570.141 43.4467C570.062 43.7452 570.24 44.0519 570.54 44.1319L571.956 44.5091C572.256 44.5891 572.564 44.412 572.643 44.1136L572.674 43.9961C572.754 43.6977 573.062 43.5206 573.362 43.6006L574.708 43.9593C575.008 44.0392 575.316 43.8621 575.395 43.5637L575.77 42.156ZM578.511 64.0212C576.78 70.513 570.086 74.3653 563.56 72.6256C557.033 70.8859 553.145 64.213 554.875 57.7212C556.606 51.2294 563.3 47.3771 569.826 49.1168C576.353 50.8565 580.241 57.5295 578.511 64.0212ZM582.042 64.9626C579.795 73.3945 571.101 78.398 562.623 76.1384C554.146 73.8788 549.096 65.2116 551.344 56.7798C553.591 48.348 562.285 43.3444 570.763 45.604C579.24 47.8636 584.29 56.5308 582.042 64.9626ZM558.353 64.7L559.811 63.8145L562.546 64.5435L563.303 66.0193L558.353 64.7ZM559.462 59.2038L560.353 60.668L559.634 63.3663L558.15 64.1268L559.462 59.2038ZM563.786 65.6291L562.893 64.176L563.615 61.4667L565.098 60.7061L563.786 65.6291ZM561.325 53.5073L566.274 54.8266L564.861 55.7238L562.148 55.0007L561.325 53.5073ZM559.532 58.8094L560.844 53.8864L561.755 55.2735L561.027 58.0049L559.532 58.8094ZM566.48 55.3887L565.168 60.3118L564.257 58.9247L564.982 56.2043L566.48 55.3887ZM567.209 67.0606L568.667 66.1751L571.402 66.9041L572.159 68.3799L567.209 67.0606ZM568.318 61.5644L569.209 63.0286L568.49 65.7269L567.006 66.4874L568.318 61.5644ZM572.642 67.9897L571.749 66.5366L572.471 63.8273L573.954 63.0667L572.642 67.9897ZM570.181 55.8679L575.13 57.1872L573.717 58.0844L571.004 57.3613L570.181 55.8679ZM568.388 61.1701L569.7 56.247L570.611 57.6341L569.883 60.3655L568.388 61.1701ZM575.336 57.7493L574.024 62.6724L573.113 61.2853L573.838 58.5649L575.336 57.7493ZM547.74 56.1086C548.541 53.1048 550.006 50.4547 551.938 48.2729C552.139 48.0469 552.451 47.9585 552.745 48.0366C553.359 48.2003 553.566 48.9729 553.149 49.4489C551.412 51.4299 550.094 53.8284 549.37 56.5431C548.646 59.2578 548.596 61.9942 549.116 64.5768C549.241 65.1974 548.677 65.7644 548.063 65.6006C547.77 65.5225 547.542 65.2901 547.481 64.9944C546.892 62.1405 546.939 59.1124 547.74 56.1086ZM580.497 74.2462C580.791 74.3244 581.103 74.236 581.304 74.0099C583.236 71.8282 584.701 69.178 585.502 66.1742C586.303 63.1704 586.35 60.1424 585.761 57.2885C585.7 56.9927 585.472 56.7603 585.179 56.6822C584.565 56.5185 584.001 57.0854 584.126 57.706C584.646 60.2886 584.595 63.025 583.872 65.7397C583.148 68.4544 581.83 70.8529 580.093 72.8339C579.676 73.3099 579.883 74.0825 580.497 74.2462ZM558.572 43.3208C558.84 43.1663 559.184 43.2579 559.34 43.5256L559.589 43.9528C559.745 44.2204 559.654 44.5626 559.385 44.7171L558.847 45.0271C558.66 45.1343 558.597 45.3716 558.705 45.5572C558.813 45.7429 558.75 45.9803 558.564 46.0875L557.838 46.5055C557.652 46.6127 557.413 46.549 557.305 46.3634C557.196 46.1777 556.958 46.1141 556.771 46.2213L556.259 46.5163C555.99 46.6708 555.646 46.5791 555.49 46.3115L555.241 45.8843C555.085 45.6166 555.177 45.2744 555.445 45.12L558.572 43.3208ZM584.283 52.8287C584.439 53.0964 584.348 53.4385 584.079 53.593L583.651 53.8397C583.382 53.9941 583.038 53.9024 582.883 53.6349L582.57 53.098C582.461 52.9123 582.223 52.8487 582.037 52.9559C581.85 53.063 581.612 52.9994 581.503 52.8137L581.082 52.0898C580.973 51.9041 581.037 51.6667 581.223 51.5595C581.409 51.4522 581.472 51.2147 581.364 51.029L581.066 50.5181C580.91 50.2505 581.002 49.9083 581.27 49.7538L581.699 49.5072C581.967 49.3527 582.311 49.4445 582.467 49.712L584.283 52.8287Z" fill="url(#paint19_radial_0_10)"/>
</g>
</g>
<g opacity="0.1">
<path d="M207.695 205.848L160.821 24.4107C160.535 23.304 161.2 22.1741 162.306 21.8871C163.413 21.6001 164.542 22.2646 164.827 23.3713L211.701 204.808C211.987 205.915 211.322 207.045 210.216 207.332C209.109 207.619 207.98 206.955 207.695 205.848Z" fill="url(#paint20_radial_0_10)" stroke="#182338" stroke-width="1.14942" stroke-miterlimit="10"/>
<path d="M128.588 45.3063C145.12 29.2661 154.286 20.7649 166.6 25.6086L179.237 74.3223C159.284 78.9885 153.1 90.5268 120.079 71.8705C114.216 69.1697 101.377 72.5039 101.017 72.6001C85.3776 75.5317 76.6788 72.5295 61.2453 54.3457L70.1115 54.3876C74.1631 54.3402 77.0595 54.4558 80.5729 51.6736C88.1121 44.8443 96.2477 44.2699 117.044 48.301C121.566 48.6905 127.98 45.9297 128.588 45.3063Z" fill="url(#paint21_linear_0_10)" stroke="#182338" stroke-width="1.14942"/>
<path d="M161.306 28.0846L172.851 72.5882" stroke="#182338" stroke-width="1.14942" stroke-linecap="round"/>
<mask id="mask2_0_10" style="mask-type:alpha" maskUnits="userSpaceOnUse" x="59" y="23" width="121" height="60">
<path d="M128.588 45.3064C145.12 29.2662 154.286 20.765 166.6 25.6087L179.237 74.3224C159.284 78.9885 153.1 90.5269 120.079 71.8706C114.216 69.1698 101.377 72.504 101.017 72.6001C85.3776 75.5317 76.6787 72.5295 61.2453 54.3458L70.1115 54.3877C74.1631 54.3403 77.0595 54.4559 80.5729 51.6737C88.1121 44.8444 96.2477 44.2699 117.044 48.3011C121.566 48.6906 127.98 45.9297 128.588 45.3064Z" fill="url(#paint22_linear_0_10)" stroke="#182338" stroke-width="1.14942"/>
</mask>
<g mask="url(#mask2_0_10)">
<path fill-rule="evenodd" clip-rule="evenodd" d="M137.477 42.156C137.398 41.8575 137.577 41.5507 137.877 41.4707L144.111 39.8089C144.411 39.7289 144.718 39.9061 144.798 40.2045L145.173 41.6122C145.253 41.9107 145.074 42.2175 144.774 42.2974L143.474 42.6438C143.174 42.7237 142.996 43.0305 143.075 43.329L143.107 43.4467C143.186 43.7452 143.007 44.0519 142.707 44.1319L141.292 44.5091C140.992 44.5891 140.684 44.412 140.604 44.1136L140.573 43.9961C140.494 43.6977 140.186 43.5206 139.886 43.6006L138.54 43.9593C138.24 44.0392 137.932 43.8621 137.853 43.5637L137.477 42.156ZM134.737 64.0212C136.467 70.513 143.161 74.3653 149.688 72.6256C156.214 70.8859 160.103 64.213 158.372 57.7212C156.642 51.2294 149.948 47.3771 143.421 49.1168C136.895 50.8565 133.007 57.5295 134.737 64.0212ZM131.205 64.9626C133.453 73.3945 142.147 78.398 150.624 76.1384C159.101 73.8788 164.151 65.2116 161.904 56.7798C159.656 48.348 150.962 43.3444 142.485 45.604C134.008 47.8636 128.958 56.5308 131.205 64.9626ZM154.895 64.7L153.437 63.8145L150.702 64.5435L149.945 66.0193L154.895 64.7ZM153.785 59.2038L152.895 60.668L153.614 63.3663L155.098 64.1268L153.785 59.2038ZM149.462 65.6291L150.355 64.176L149.633 61.4667L148.149 60.7061L149.462 65.6291ZM151.923 53.5073L146.973 54.8266L148.387 55.7238L151.1 55.0007L151.923 53.5073ZM153.716 58.8094L152.403 53.8864L151.492 55.2735L152.22 58.0049L153.716 58.8094ZM146.767 55.3887L148.08 60.3118L148.991 58.9247L148.266 56.2043L146.767 55.3887ZM146.039 67.0606L144.581 66.1751L141.846 66.9041L141.089 68.3799L146.039 67.0606ZM144.929 61.5644L144.039 63.0286L144.758 65.7269L146.242 66.4874L144.929 61.5644ZM140.606 67.9897L141.499 66.5366L140.777 63.8273L139.293 63.0667L140.606 67.9897ZM143.067 55.8679L138.117 57.1872L139.531 58.0844L142.244 57.3613L143.067 55.8679ZM144.86 61.1701L143.547 56.247L142.636 57.6341L143.364 60.3655L144.86 61.1701ZM137.911 57.7493L139.224 62.6724L140.135 61.2853L139.41 58.5649L137.911 57.7493ZM165.507 56.1086C164.707 53.1048 163.241 50.4547 161.309 48.2729C161.109 48.0469 160.796 47.9585 160.503 48.0366C159.889 48.2003 159.682 48.9729 160.099 49.4489C161.836 51.4299 163.154 53.8284 163.877 56.5431C164.601 59.2578 164.652 61.9942 164.131 64.5768C164.006 65.1974 164.571 65.7644 165.185 65.6006C165.478 65.5225 165.705 65.2901 165.766 64.9944C166.356 62.1405 166.308 59.1124 165.507 56.1086ZM132.75 74.2462C132.457 74.3244 132.144 74.236 131.944 74.0099C130.012 71.8282 128.546 69.178 127.746 66.1742C126.945 63.1704 126.897 60.1424 127.487 57.2885C127.548 56.9927 127.775 56.7603 128.068 56.6822C128.683 56.5185 129.247 57.0854 129.122 57.706C128.602 60.2886 128.652 63.025 129.376 65.7397C130.099 68.4544 131.417 70.8529 133.154 72.8339C133.572 73.3099 133.364 74.0825 132.75 74.2462ZM154.676 43.3208C154.407 43.1663 154.064 43.2579 153.908 43.5256L153.659 43.9528C153.503 44.2204 153.594 44.5626 153.862 44.7171L154.401 45.0271C154.587 45.1343 154.65 45.3716 154.542 45.5572C154.434 45.7429 154.497 45.9803 154.684 46.0875L155.41 46.5055C155.596 46.6127 155.835 46.549 155.943 46.3634C156.051 46.1777 156.29 46.1141 156.476 46.2213L156.989 46.5163C157.257 46.6708 157.601 46.5791 157.757 46.3115L158.006 45.8843C158.162 45.6166 158.071 45.2744 157.802 45.12L154.676 43.3208ZM128.964 52.8287C128.808 53.0964 128.9 53.4385 129.168 53.593L129.597 53.8397C129.865 53.9941 130.209 53.9024 130.365 53.6349L130.678 53.098C130.786 52.9123 131.025 52.8487 131.211 52.9559C131.397 53.063 131.636 52.9994 131.744 52.8137L132.166 52.0898C132.274 51.9041 132.211 51.6667 132.025 51.5595C131.838 51.4522 131.775 51.2147 131.883 51.029L132.181 50.5181C132.337 50.2505 132.246 49.9083 131.977 49.7538L131.549 49.5072C131.28 49.3527 130.936 49.4445 130.78 49.712L128.964 52.8287Z" fill="url(#paint23_radial_0_10)"/>
</g>
</g>
<defs>
<radialGradient id="paint0_radial_0_10" cx="0" cy="0" r="1" gradientUnits="userSpaceOnUse" gradientTransform="translate(328.445 72.3987) rotate(49.3792) scale(46.5252 60.1953)">
<stop stop-color="#B2DDC5"/>
<stop offset="0.4819" stop-color="#92D5D7" stop-opacity="0.31"/>
<stop offset="1" stop-color="#A74B9C" stop-opacity="0.96"/>
</radialGradient>
<radialGradient id="paint1_radial_0_10" cx="0" cy="0" r="1" gradientUnits="userSpaceOnUse" gradientTransform="translate(327.754 72.5131) rotate(49.3786) scale(44.3454 57.375)">
<stop stop-color="#B2DDC5"/>
<stop offset="0.4819" stop-color="#92D5D7" stop-opacity="0.31"/>
<stop offset="1" stop-color="#A74B9C" stop-opacity="0.96"/>
</radialGradient>
<radialGradient id="paint2_radial_0_10" cx="0" cy="0" r="1" gradientUnits="userSpaceOnUse" gradientTransform="translate(319.246 117.037) rotate(43.7203) scale(28.5781 37.3311)">
<stop stop-color="#F4F4F5"/>
<stop offset="0.4819" stop-color="#361836" stop-opacity="0.22"/>
<stop offset="1" stop-color="#A74B9C" stop-opacity="0.96"/>
</radialGradient>
<radialGradient id="paint3_radial_0_10" cx="0" cy="0" r="1" gradientUnits="userSpaceOnUse" gradientTransform="translate(328.469 72.8555) rotate(13.0808) scale(24.9565 14.2036)">
<stop stop-color="#F4F4F5"/>
<stop offset="0.4819" stop-color="#F4F4F5"/>
<stop offset="1" stop-color="#A74B9C" stop-opacity="0.96"/>
</radialGradient>
<radialGradient id="paint4_radial_0_10" cx="0" cy="0" r="1" gradientUnits="userSpaceOnUse" gradientTransform="translate(328.004 38.36) rotate(47.1046) scale(44.6266 58.2357)">
<stop stop-color="#0A060A"/>
<stop offset="0.5677" stop-color="#BAAEBA" stop-opacity="0.5667"/>
<stop offset="1" stop-color="#A74B9C" stop-opacity="0.96"/>
</radialGradient>
<radialGradient id="paint5_radial_0_10" cx="0" cy="0" r="1" gradientUnits="userSpaceOnUse" gradientTransform="translate(322.157 46.9412) rotate(56.2306) scale(32.6311 35.8128)">
<stop stop-color="#2F6757"/>
<stop offset="0.4271" stop-color="#1D0F24"/>
<stop offset="0.6991" stop-color="#2E1C51"/>
<stop offset="1" stop-color="#793A96"/>
</radialGradient>
<radialGradient id="paint6_radial_0_10" cx="0" cy="0" r="1" gradientUnits="userSpaceOnUse" gradientTransform="translate(325.591 93.9628) rotate(52.3126) scale(17.4047 19.9832)">
<stop stop-color="#DDDDDD"/>
<stop offset="0.1875" stop-color="#CACACA"/>
<stop offset="0.3288" stop-color="#CB9CC8"/>
<stop offset="0.6991" stop-color="#DBDADA"/>
<stop offset="1" stop-color="#F0EFEF"/>
</radialGradient>
<radialGradient id="paint7_radial_0_10" cx="0" cy="0" r="1" gradientUnits="userSpaceOnUse" gradientTransform="translate(357.736 91.7525) rotate(67.1721) scale(55.0096 56.7451)">
<stop stop-color="#BA549F" stop-opacity="0.27"/>
<stop offset="0.4819" stop-color="#B966A9" stop-opacity="0.22"/>
<stop offset="1" stop-color="#A74B9C" stop-opacity="0.96"/>
</radialGradient>
<radialGradient id="paint8_radial_0_10" cx="0" cy="0" r="1" gradientUnits="userSpaceOnUse" gradientTransform="translate(282.763 71.4221) rotate(48.4888) scale(14.2657 19.1935)">
<stop stop-color="#4DB748" stop-opacity="0.4"/>
<stop offset="0.4531" stop-color="#E3E3E3" stop-opacity="0.5667"/>
<stop offset="1" stop-color="#F4F4F5"/>
</radialGradient>
<radialGradient id="paint9_radial_0_10" cx="0" cy="0" r="1" gradientUnits="userSpaceOnUse" gradientTransform="translate(283.135 71.4165) rotate(49.9084) scale(13.9728 18.6698)">
<stop stop-color="#F4F4F5"/>
<stop offset="0.4819" stop-color="#BAAEBA" stop-opacity="0.5667"/>
<stop offset="1" stop-color="#A6D172" stop-opacity="0.96"/>
</radialGradient>
<radialGradient id="paint10_radial_0_10" cx="0" cy="0" r="1" gradientUnits="userSpaceOnUse" gradientTransform="translate(375.991 71.3416) rotate(123.686) scale(14.2464 19.2195)">
<stop stop-color="#4DB748" stop-opacity="0.4"/>
<stop offset="0.4531" stop-color="#E3E3E3" stop-opacity="0.5667"/>
<stop offset="1" stop-color="#F4F4F5"/>
</radialGradient>
<radialGradient id="paint11_radial_0_10" cx="0" cy="0" r="1" gradientUnits="userSpaceOnUse" gradientTransform="translate(375.625 71.3863) rotate(122.261) scale(13.9541 18.6948)">
<stop stop-color="#F4F4F5"/>
<stop offset="0.4819" stop-color="#BAAEBA" stop-opacity="0.5667"/>
<stop offset="1" stop-color="#A6D172" stop-opacity="0.96"/>
</radialGradient>
<radialGradient id="paint12_radial_0_10" cx="0" cy="0" r="1" gradientUnits="userSpaceOnUse" gradientTransform="translate(376.588 70.7005) rotate(97.3386) scale(86.8861 5.58169)">
<stop stop-color="#DDDDDD"/>
<stop offset="0.1875" stop-color="#CACACA"/>
<stop offset="0.32884" stop-color="#989898"/>
<stop offset="0.699054" stop-color="#DADADA"/>
<stop offset="1" stop-color="#EFEFEF"/>
</radialGradient>
<linearGradient id="paint13_linear_0_10" x1="381.56" y1="58.4012" x2="434.626" y2="55.9431" gradientUnits="userSpaceOnUse">
<stop stop-color="white"/>
<stop offset="0.166699" stop-color="#FFFBFB"/>
<stop offset="0.447956" stop-color="#C0B9B9"/>
<stop offset="0.708378" stop-color="white"/>
<stop offset="0.849006" stop-color="#D4D4D4"/>
<stop offset="1" stop-color="white"/>
</linearGradient>
<linearGradient id="paint14_linear_0_10" x1="381.56" y1="58.4012" x2="434.626" y2="55.9432" gradientUnits="userSpaceOnUse">
<stop stop-color="white"/>
<stop offset="0.166699" stop-color="#FFFBFB"/>
<stop offset="0.447956" stop-color="#C0B9B9"/>
<stop offset="0.708378" stop-color="white"/>
<stop offset="0.849006" stop-color="#D4D4D4"/>
<stop offset="1" stop-color="white"/>
</linearGradient>
<radialGradient id="paint15_radial_0_10" cx="0" cy="0" r="1" gradientUnits="userSpaceOnUse" gradientTransform="translate(387.826 53.7087) rotate(68.3771) scale(19.3247 19.9074)">
<stop stop-color="#2F6757"/>
<stop offset="0.4271" stop-color="#1D0F24"/>
<stop offset="0.6991" stop-color="#2E1C51"/>
<stop offset="1" stop-color="#793A96"/>
</radialGradient>
<radialGradient id="paint16_radial_0_10" cx="0" cy="0" r="1" gradientUnits="userSpaceOnUse" gradientTransform="translate(534.967 79.9322) rotate(103.806) scale(169.658 10.8991)">
<stop stop-color="#DDDDDD"/>
<stop offset="0.1875" stop-color="#CACACA"/>
<stop offset="0.32884" stop-color="#989898"/>
<stop offset="0.699054" stop-color="#DADADA"/>
<stop offset="1" stop-color="#EFEFEF"/>
</radialGradient>
<linearGradient id="paint17_linear_0_10" x1="547.317" y1="57.1624" x2="650.818" y2="64.0656" gradientUnits="userSpaceOnUse">
<stop stop-color="white"/>
<stop offset="0.166699" stop-color="#FFFBFB"/>
<stop offset="0.447956" stop-color="#C0B9B9"/>
<stop offset="0.708378" stop-color="white"/>
<stop offset="0.849006" stop-color="#D4D4D4"/>
<stop offset="1" stop-color="white"/>
</linearGradient>
<linearGradient id="paint18_linear_0_10" x1="547.317" y1="57.1624" x2="650.818" y2="64.0656" gradientUnits="userSpaceOnUse">
<stop stop-color="white"/>
<stop offset="0.166699" stop-color="#FFFBFB"/>
<stop offset="0.447956" stop-color="#C0B9B9"/>
<stop offset="0.708378" stop-color="white"/>
<stop offset="0.849006" stop-color="#D4D4D4"/>
<stop offset="1" stop-color="white"/>
</linearGradient>
<radialGradient id="paint19_radial_0_10" cx="0" cy="0" r="1" gradientUnits="userSpaceOnUse" gradientTransform="translate(560.509 49.4364) rotate(74.8449) scale(37.7344 38.8722)">
<stop stop-color="#2F6757"/>
<stop offset="0.4271" stop-color="#1D0F24"/>
<stop offset="0.6991" stop-color="#2E1C51"/>
<stop offset="1" stop-color="#793A96"/>
</radialGradient>
<radialGradient id="paint20_radial_0_10" cx="0" cy="0" r="1" gradientUnits="userSpaceOnUse" gradientTransform="translate(178.279 79.9322) rotate(76.1935) scale(169.658 10.8991)">
<stop stop-color="#DDDDDD"/>
<stop offset="0.1875" stop-color="#CACACA"/>
<stop offset="0.32884" stop-color="#989898"/>
<stop offset="0.699054" stop-color="#DADADA"/>
<stop offset="1" stop-color="#EFEFEF"/>
</radialGradient>
<linearGradient id="paint21_linear_0_10" x1="165.93" y1="57.1623" x2="62.4292" y2="64.0655" gradientUnits="userSpaceOnUse">
<stop stop-color="white"/>
<stop offset="0.166699" stop-color="#FFFBFB"/>
<stop offset="0.447956" stop-color="#C0B9B9"/>
<stop offset="0.708378" stop-color="white"/>
<stop offset="0.849006" stop-color="#D4D4D4"/>
<stop offset="1" stop-color="white"/>
</linearGradient>
<linearGradient id="paint22_linear_0_10" x1="165.93" y1="57.1624" x2="62.4292" y2="64.0656" gradientUnits="userSpaceOnUse">
<stop stop-color="white"/>
<stop offset="0.166699" stop-color="#FFFBFB"/>
<stop offset="0.447956" stop-color="#C0B9B9"/>
<stop offset="0.708378" stop-color="white"/>
<stop offset="0.849006" stop-color="#D4D4D4"/>
<stop offset="1" stop-color="white"/>
</linearGradient>
<radialGradient id="paint23_radial_0_10" cx="0" cy="0" r="1" gradientUnits="userSpaceOnUse" gradientTransform="translate(152.739 49.4364) rotate(105.155) scale(37.7344 38.8722)">
<stop stop-color="#2F6757"/>
<stop offset="0.4271" stop-color="#1D0F24"/>
<stop offset="0.6991" stop-color="#2E1C51"/>
<stop offset="1" stop-color="#793A96"/>
</radialGradient>
</defs>
</svg>
