<svg width="183" height="162" viewBox="0 0 183 162" fill="none" xmlns="http://www.w3.org/2000/svg">
<path d="M121.562 74.9999L89.2396 62.9999L88.8638 116.25L121.562 74.9999Z" fill="url(#paint0_linear_11011_93372)"/>
<path d="M88.8646 130.125L89.2404 62.9999L54.6631 76.1249L88.8646 130.125Z" fill="url(#paint1_linear_11011_93372)"/>
<path d="M94.1262 43.875L89.2402 63L121.563 75L149.375 81.375L158.771 61.125L94.1262 43.875Z" fill="url(#paint2_linear_11011_93372)"/>
<path d="M84.3537 43.1251L20.085 60.3751L20.8366 66.0001L32.1119 84.7501L89.2396 63.0001L84.3537 43.1251Z" fill="url(#paint3_linear_11011_93372)"/>
<path d="M63.2386 132.249L73.6288 137.65C82.602 142.315 93.3215 142.144 102.142 137.197L108.07 133.872C117.535 128.563 123.395 118.558 123.395 107.707V102.36C123.395 96.3412 125.205 90.4617 128.59 85.4854L147.874 57.1398C149.549 54.678 151.581 52.4792 153.903 50.6158L166.956 40.1423C175.5 33.2862 177.378 21.0323 171.279 11.9322C167.522 6.32748 161.312 2.85685 154.57 2.59409L88.0078 0L23.7898 2.44384C14.8296 2.78482 7.04818 8.71445 4.34245 17.2631C2.21332 23.99 3.56273 31.3351 7.94385 36.866L23.706 56.7646C24.6669 57.9777 25.5326 59.2634 26.2951 60.6101L42.0364 88.4092C43.8015 91.5264 44.994 94.9345 45.5575 98.4721L47.4495 110.35C48.9451 119.739 54.8028 127.863 63.2386 132.249Z" fill="url(#paint4_linear_11011_93372)"/>
<g clip-path="url(#clip0_11011_93372)">
<path d="M88.3311 85.3755C106.546 85.3755 121.313 70.8228 121.313 52.8711C121.313 34.9195 106.546 20.3668 88.3311 20.3668C70.1159 20.3668 55.3496 34.9195 55.3496 52.8711C55.3496 70.8228 70.1159 85.3755 88.3311 85.3755Z" fill="#42C79D"/>
<path d="M79.6013 62.5325C77.561 62.5325 75.8904 62.0661 74.5895 61.1332C73.3023 60.187 72.6587 58.8277 72.6587 57.0819C72.6587 56.7087 72.6998 56.269 72.7819 55.7359C73.001 54.5365 73.316 53.0972 73.7268 51.4047C74.8907 46.8203 77.9033 44.5281 82.7509 44.5281C84.0654 44.5281 85.2568 44.7413 86.2975 45.1811C87.3382 45.5942 88.1598 46.2339 88.7623 47.0868C89.3648 47.9264 89.6661 48.9259 89.6661 50.0853C89.6661 50.4318 89.625 50.8716 89.5429 51.4047C89.2827 52.884 88.9814 54.3366 88.6117 55.7359C88.0092 58.0148 86.9822 59.7339 85.5033 60.8667C84.038 61.9861 82.0662 62.5325 79.6013 62.5325ZM79.9711 58.9343C80.9296 58.9343 81.7375 58.6545 82.4085 58.1081C83.0932 57.5617 83.5862 56.7221 83.8737 55.576C84.2708 54.0034 84.5721 52.6441 84.7775 51.4713C84.846 51.1248 84.887 50.765 84.887 50.3919C84.887 48.8726 84.0791 48.113 82.4496 48.113C81.491 48.113 80.6694 48.3928 79.9848 48.9392C79.3138 49.4856 78.8345 50.3252 78.5469 51.4713C78.232 52.5908 77.9307 53.9501 77.6158 55.576C77.5473 55.9091 77.5062 56.2556 77.5062 56.6288C77.4925 58.1747 78.3278 58.9343 79.9711 58.9343Z" fill="#F3F4F8"/>
<path d="M90.8578 62.2925C90.6661 62.2925 90.5291 62.2392 90.4196 62.1193C90.3374 61.986 90.31 61.8394 90.3374 61.6662L93.8841 45.4075C93.9114 45.2209 94.0073 45.0743 94.1716 44.9544C94.3222 44.8344 94.4866 44.7811 94.6646 44.7811H101.498C103.401 44.7811 104.921 45.1676 106.071 45.9272C107.235 46.7002 107.824 47.8063 107.824 49.2589C107.824 49.6721 107.769 50.1118 107.673 50.5649C107.249 52.484 106.386 53.8966 105.072 54.8162C103.785 55.7357 102.018 56.1888 99.7723 56.1888H96.3078L95.1302 61.6662C95.0891 61.8527 95.0069 61.9993 94.8426 62.1193C94.692 62.2392 94.5276 62.2925 94.3496 62.2925H90.8578ZM99.9503 52.7372C100.676 52.7372 101.292 52.5506 101.826 52.1642C102.374 51.7777 102.73 51.2313 102.908 50.5116C102.963 50.2318 102.99 49.9786 102.99 49.7653C102.99 49.2856 102.84 48.9124 102.552 48.6592C102.265 48.3927 101.758 48.2594 101.059 48.2594H97.9784L97.0062 52.7372H99.9503Z" fill="#F3F4F8"/>
<path d="M87.5003 20.25C105.482 20.25 120.063 34.4419 120.063 51.944C120.063 69.4462 105.482 83.6381 87.5003 83.6381C69.5184 83.6381 54.9375 69.455 54.9375 51.944C54.9375 34.4331 69.5184 20.25 87.5003 20.25Z" fill="url(#paint5_linear_11011_93372)"/>
<path d="M91.8397 46.367V46.4136L91.8863 46.4158C96.1016 46.6109 99.7913 47.1262 102.427 47.8422C103.745 48.2003 104.797 48.6079 105.518 49.0489C106.243 49.4918 106.62 49.9593 106.622 50.4329C106.622 50.9064 106.246 51.3737 105.523 51.8165C104.803 52.2576 103.752 52.6651 102.434 53.0232C99.7998 53.7392 96.1101 54.2545 91.8948 54.4496L91.8482 54.4518V54.4984V69.0062H84.4273V54.4984V54.4518L84.3808 54.4496C80.1612 54.2545 76.4651 53.7392 73.8253 53.0232C72.505 52.6651 71.4517 52.2576 70.7296 51.8165C70.0045 51.3736 69.6279 50.9062 69.6279 50.4327C69.6279 49.9593 70.0045 49.4919 70.7296 49.0489C71.4517 48.6079 72.505 48.2003 73.8253 47.8422C76.4651 47.1263 80.1612 46.6109 84.3808 46.4158L84.4273 46.4136V46.367V41.8176V41.7688H84.3785H74.0321V34.9403H102.235V41.7688H91.8885H91.8397V41.8176V46.367ZM91.899 53.3164L91.8992 53.3164C95.6221 53.1466 98.8756 52.7368 101.202 52.1745C102.364 51.8935 103.298 51.5738 103.943 51.2254C104.266 51.0512 104.518 50.8686 104.692 50.6782C104.865 50.4876 104.961 50.2864 104.963 50.0768V50.0762C104.963 49.8665 104.869 49.6652 104.697 49.4744C104.526 49.2839 104.274 49.1014 103.953 48.9272C103.31 48.579 102.377 48.2595 101.215 47.979C98.8904 47.4178 95.6348 47.0101 91.9077 46.8445L91.8567 46.8423V46.8933V51.9251C91.5542 51.9554 90.3973 52.039 88.2057 52.039C86.3289 52.039 84.9636 51.9591 84.4358 51.9234V46.9103V46.8592L84.3848 46.8615C80.6492 47.0271 77.3873 47.4348 75.058 47.9959C73.8938 48.2764 72.9599 48.5959 72.3159 48.9442C71.994 49.1183 71.7421 49.3009 71.5702 49.4914C71.398 49.6821 71.3038 49.8834 71.3038 50.0932C71.3038 50.303 71.3982 50.5043 71.5706 50.6951C71.7427 50.8855 71.9948 51.0681 72.3171 51.2422C72.9618 51.5905 73.8965 51.91 75.0612 52.1905C77.3915 52.7517 80.6535 53.1593 84.3848 53.3249L84.4358 53.3272V53.319C84.9603 53.3453 86.2925 53.3929 88.1717 53.3929C90.3291 53.3929 91.4279 53.3392 91.7948 53.3213C91.8408 53.3191 91.8753 53.3174 91.899 53.3164Z" fill="url(#paint6_linear_11011_93372)" stroke="#07B67E" stroke-width="0.0976102"/>
</g>
<path opacity="0.3" fill-rule="evenodd" clip-rule="evenodd" d="M26.4327 28.021C26.4327 27.8712 26.311 27.7498 26.1609 27.7498C26.0107 27.7498 25.889 27.8712 25.889 28.021C25.889 28.1709 26.0107 28.2923 26.1609 28.2923C26.311 28.2923 26.4327 28.1709 26.4327 28.021ZM35.9491 35.2618C36.0993 35.2618 36.221 35.3832 36.221 35.5331C36.221 35.6829 36.0993 35.8043 35.9491 35.8043C35.799 35.8043 35.6772 35.6829 35.6772 35.5331C35.6772 35.3832 35.799 35.2618 35.9491 35.2618ZM44.67 39.9575C44.67 39.8077 44.5483 39.6863 44.3981 39.6863C44.248 39.6863 44.1263 39.8077 44.1263 39.9575C44.1263 40.1074 44.248 40.2288 44.3981 40.2288C44.5483 40.2288 44.67 40.1074 44.67 39.9575ZM30.9503 41.5429C30.9503 41.393 30.8286 41.2716 30.6784 41.2716C30.5283 41.2716 30.4065 41.393 30.4065 41.5429C30.4065 41.6927 30.5283 41.8141 30.6784 41.8141C30.8286 41.8141 30.9503 41.6927 30.9503 41.5429ZM20.1376 37.14C20.2878 37.14 20.4095 37.2615 20.4095 37.4113C20.4095 37.5611 20.2878 37.6826 20.1376 37.6826C19.9875 37.6826 19.8657 37.5611 19.8657 37.4113C19.8657 37.2615 19.9875 37.14 20.1376 37.14ZM39.2323 29.1061C39.2323 28.9562 39.1106 28.8348 38.9605 28.8348C38.8103 28.8348 38.6886 28.9562 38.6886 29.1061C38.6886 29.2559 38.8103 29.3773 38.9605 29.3773C39.1106 29.3773 39.2323 29.2559 39.2323 29.1061ZM47.1173 33.1755C47.2674 33.1755 47.3891 33.2969 47.3891 33.4468C47.3891 33.5966 47.2674 33.718 47.1173 33.718C46.9671 33.718 46.8454 33.5966 46.8454 33.4468C46.8454 33.2969 46.9671 33.1755 47.1173 33.1755ZM45.2139 34.5318C45.2139 34.382 45.0921 34.2605 44.942 34.2605C44.7918 34.2605 44.6701 34.382 44.6701 34.5318C44.6701 34.6816 44.7918 34.8031 44.942 34.8031C45.0921 34.8031 45.2139 34.6816 45.2139 34.5318ZM55.8173 39.6863C55.9675 39.6863 56.0892 39.8077 56.0892 39.9575C56.0892 40.1074 55.9675 40.2288 55.8173 40.2288C55.6672 40.2288 55.5454 40.1074 55.5454 39.9575C55.5454 39.8077 55.6672 39.6863 55.8173 39.6863ZM72.4028 29.1061C72.4028 28.9562 72.2811 28.8348 72.1309 28.8348C71.9807 28.8348 71.859 28.9562 71.859 29.1061C71.859 29.2559 71.9807 29.3773 72.1309 29.3773C72.2811 29.3773 72.4028 29.2559 72.4028 29.1061ZM99.3193 27.7498C99.4694 27.7498 99.5912 27.8712 99.5912 28.021C99.5912 28.1709 99.4694 28.2923 99.3193 28.2923C99.1691 28.2923 99.0474 28.1709 99.0474 28.021C99.0474 27.8712 99.1691 27.7498 99.3193 27.7498ZM132.217 32.3617C132.217 32.2119 132.096 32.0904 131.945 32.0904C131.795 32.0904 131.673 32.2119 131.673 32.3617C131.673 32.5115 131.795 32.633 131.945 32.633C132.096 32.633 132.217 32.5115 132.217 32.3617ZM137.383 38.6007C137.533 38.6007 137.655 38.7221 137.655 38.8719C137.655 39.0218 137.533 39.1432 137.383 39.1432C137.233 39.1432 137.111 39.0218 137.111 38.8719C137.111 38.7221 137.233 38.6007 137.383 38.6007ZM143.093 34.5318C143.093 34.382 142.971 34.2605 142.821 34.2605C142.671 34.2605 142.549 34.382 142.549 34.5318C142.549 34.6816 142.671 34.8031 142.821 34.8031C142.971 34.8031 143.093 34.6816 143.093 34.5318ZM152.274 28.5008C152.425 28.5008 152.546 28.6223 152.546 28.7721C152.546 28.9219 152.425 29.0434 152.274 29.0434C152.124 29.0434 152.003 28.9219 152.003 28.7721C152.003 28.6223 152.124 28.5008 152.274 28.5008ZM164.217 31.4015C164.217 31.2517 164.095 31.1302 163.945 31.1302C163.794 31.1302 163.673 31.2517 163.673 31.4015C163.673 31.5513 163.794 31.6728 163.945 31.6728C164.095 31.6728 164.217 31.5513 164.217 31.4015ZM154.533 37.5156C154.683 37.5156 154.805 37.6371 154.805 37.7869C154.805 37.9367 154.683 38.0582 154.533 38.0582C154.383 38.0582 154.261 37.9367 154.261 37.7869C154.261 37.6371 154.383 37.5156 154.533 37.5156ZM165.346 42.2946C165.346 42.1448 165.224 42.0233 165.074 42.0233C164.924 42.0233 164.802 42.1448 164.802 42.2946C164.802 42.4444 164.924 42.5659 165.074 42.5659C165.224 42.5659 165.346 42.4444 165.346 42.2946ZM146.251 42.3988C146.401 42.3988 146.523 42.5202 146.523 42.6701C146.523 42.8199 146.401 42.9413 146.251 42.9413C146.101 42.9413 145.979 42.8199 145.979 42.6701C145.979 42.5202 146.101 42.3988 146.251 42.3988ZM126.78 41.0426C126.78 40.8927 126.658 40.7713 126.508 40.7713C126.358 40.7713 126.236 40.8927 126.236 41.0426C126.236 41.1924 126.358 41.3138 126.508 41.3138C126.658 41.3138 126.78 41.1924 126.78 41.0426ZM126.508 29.3772C126.658 29.3772 126.78 29.4987 126.78 29.6485C126.78 29.7983 126.658 29.9198 126.508 29.9198C126.358 29.9198 126.236 29.7983 126.236 29.6485C126.236 29.4987 126.358 29.3772 126.508 29.3772ZM110.467 42.1276C110.467 41.9778 110.345 41.8563 110.195 41.8563C110.044 41.8563 109.923 41.9778 109.923 42.1276C109.923 42.2774 110.044 42.3989 110.195 42.3989C110.345 42.3989 110.467 42.2774 110.467 42.1276ZM77.0248 40.2287C77.1749 40.2287 77.2966 40.3502 77.2966 40.5C77.2966 40.6498 77.1749 40.7713 77.0248 40.7713C76.8746 40.7713 76.7529 40.6498 76.7529 40.5C76.7529 40.3502 76.8746 40.2287 77.0248 40.2287Z" fill="url(#paint7_linear_11011_93372)"/>
<path opacity="0.3" fill-rule="evenodd" clip-rule="evenodd" d="M42.6383 49.6441C42.6383 49.5381 42.5524 49.4521 42.4464 49.4521C42.3403 49.4521 42.2544 49.5381 42.2544 49.6441C42.2544 49.7502 42.3403 49.8361 42.4464 49.8361C42.5524 49.8361 42.6383 49.7502 42.6383 49.6441ZM49.3732 54.7682C49.4793 54.7682 49.5652 54.8541 49.5652 54.9601C49.5652 55.0662 49.4793 55.1521 49.3732 55.1521C49.2672 55.1521 49.1813 55.0662 49.1813 54.9601C49.1813 54.8541 49.2672 54.7682 49.3732 54.7682ZM55.5445 58.0904C55.5445 57.9844 55.4586 57.8984 55.3525 57.8984C55.2465 57.8984 55.1606 57.9844 55.1606 58.0904C55.1606 58.1964 55.2465 58.2824 55.3525 58.2824C55.4586 58.2824 55.5445 58.1964 55.5445 58.0904ZM45.8354 59.2133C45.8354 59.1073 45.7494 59.0214 45.6434 59.0214C45.5374 59.0214 45.4514 59.1073 45.4514 59.2133C45.4514 59.3194 45.5374 59.4053 45.6434 59.4053C45.7494 59.4053 45.8354 59.3194 45.8354 59.2133ZM38.1837 56.0969C38.2897 56.0969 38.3757 56.1829 38.3757 56.2889C38.3757 56.395 38.2897 56.4809 38.1837 56.4809C38.0777 56.4809 37.9917 56.395 37.9917 56.2889C37.9917 56.1829 38.0777 56.0969 38.1837 56.0969ZM51.6966 50.4114C51.6966 50.3054 51.6106 50.2194 51.5046 50.2194C51.3986 50.2194 51.3126 50.3054 51.3126 50.4114C51.3126 50.5174 51.3986 50.6034 51.5046 50.6034C51.6106 50.6034 51.6966 50.5174 51.6966 50.4114ZM57.2768 53.2913C57.3828 53.2913 57.4688 53.3773 57.4688 53.4833C57.4688 53.5893 57.3828 53.6753 57.2768 53.6753C57.1708 53.6753 57.0848 53.5893 57.0848 53.4833C57.0848 53.3773 57.1708 53.2913 57.2768 53.2913ZM55.9296 54.2512C55.9296 54.1452 55.8436 54.0593 55.7376 54.0593C55.6316 54.0593 55.5456 54.1452 55.5456 54.2512C55.5456 54.3573 55.6316 54.4432 55.7376 54.4432C55.8436 54.4432 55.9296 54.3573 55.9296 54.2512ZM63.4341 57.8984C63.5401 57.8984 63.6261 57.9844 63.6261 58.0904C63.6261 58.1964 63.5401 58.2824 63.4341 58.2824C63.3281 58.2824 63.2421 58.1964 63.2421 58.0904C63.2421 57.9844 63.3281 57.8984 63.4341 57.8984ZM75.1705 50.4114C75.1705 50.3054 75.0845 50.2194 74.9785 50.2194C74.8725 50.2194 74.7865 50.3054 74.7865 50.4114C74.7865 50.5174 74.8725 50.6034 74.9785 50.6034C75.0845 50.6034 75.1705 50.5174 75.1705 50.4114ZM94.2194 49.4521C94.3254 49.4521 94.4114 49.5381 94.4114 49.6441C94.4114 49.7502 94.3254 49.8361 94.2194 49.8361C94.1134 49.8361 94.0274 49.7502 94.0274 49.6441C94.0274 49.5381 94.1134 49.4521 94.2194 49.4521ZM117.501 52.7155C117.501 52.6095 117.415 52.5235 117.309 52.5235C117.203 52.5235 117.117 52.6095 117.117 52.7155C117.117 52.8215 117.203 52.9075 117.309 52.9075C117.415 52.9075 117.501 52.8215 117.501 52.7155ZM121.157 57.1306C121.263 57.1306 121.349 57.2166 121.349 57.3226C121.349 57.4286 121.263 57.5146 121.157 57.5146C121.051 57.5146 120.965 57.4286 120.965 57.3226C120.965 57.2166 121.051 57.1306 121.157 57.1306ZM125.197 54.2512C125.197 54.1452 125.111 54.0593 125.005 54.0593C124.899 54.0593 124.813 54.1452 124.813 54.2512C124.813 54.3573 124.899 54.4432 125.005 54.4432C125.111 54.4432 125.197 54.3573 125.197 54.2512ZM131.695 49.9833C131.801 49.9833 131.887 50.0693 131.887 50.1753C131.887 50.2813 131.801 50.3673 131.695 50.3673C131.589 50.3673 131.503 50.2813 131.503 50.1753C131.503 50.0693 131.589 49.9833 131.695 49.9833ZM140.146 52.0363C140.146 51.9302 140.06 51.8443 139.954 51.8443C139.848 51.8443 139.762 51.9302 139.762 52.0363C139.762 52.1423 139.848 52.2282 139.954 52.2282C140.06 52.2282 140.146 52.1423 140.146 52.0363ZM133.293 56.3634C133.399 56.3634 133.485 56.4493 133.485 56.5553C133.485 56.6614 133.399 56.7473 133.293 56.7473C133.187 56.7473 133.101 56.6614 133.101 56.5553C133.101 56.4493 133.187 56.3634 133.293 56.3634ZM140.945 59.7445C140.945 59.6385 140.859 59.5526 140.753 59.5526C140.647 59.5526 140.561 59.6385 140.561 59.7445C140.561 59.8506 140.647 59.9365 140.753 59.9365C140.859 59.9365 140.945 59.8506 140.945 59.7445ZM127.432 59.8188C127.538 59.8188 127.624 59.9048 127.624 60.0108C127.624 60.1168 127.538 60.2028 127.432 60.2028C127.326 60.2028 127.24 60.1168 127.24 60.0108C127.24 59.9048 127.326 59.8188 127.432 59.8188ZM113.652 58.8589C113.652 58.7529 113.566 58.6669 113.46 58.6669C113.354 58.6669 113.268 58.7529 113.268 58.8589C113.268 58.9649 113.354 59.0509 113.46 59.0509C113.566 59.0509 113.652 58.9649 113.652 58.8589ZM113.46 50.6037C113.566 50.6037 113.652 50.6896 113.652 50.7956C113.652 50.9017 113.566 50.9876 113.46 50.9876C113.354 50.9876 113.268 50.9017 113.268 50.7956C113.268 50.6896 113.354 50.6037 113.46 50.6037ZM102.108 59.6267C102.108 59.5207 102.022 59.4347 101.916 59.4347C101.81 59.4347 101.724 59.5207 101.724 59.6267C101.724 59.7327 101.81 59.8187 101.916 59.8187C102.022 59.8187 102.108 59.7327 102.108 59.6267ZM78.4419 58.2827C78.548 58.2827 78.6339 58.3686 78.6339 58.4747C78.6339 58.5807 78.548 58.6666 78.4419 58.6666C78.3359 58.6666 78.25 58.5807 78.25 58.4747C78.25 58.3686 78.3359 58.2827 78.4419 58.2827Z" fill="url(#paint8_linear_11011_93372)"/>
<path opacity="0.3" fill-rule="evenodd" clip-rule="evenodd" d="M48.9398 66.2431C48.9398 66.1587 48.8714 66.0903 48.787 66.0903C48.7026 66.0903 48.6342 66.1587 48.6342 66.2431C48.6342 66.3275 48.7026 66.3959 48.787 66.3959C48.8714 66.3959 48.9398 66.3275 48.9398 66.2431ZM54.2994 70.3208C54.3837 70.3208 54.4521 70.3891 54.4521 70.4735C54.4521 70.5579 54.3837 70.6263 54.2994 70.6263C54.215 70.6263 54.1466 70.5579 54.1466 70.4735C54.1466 70.3891 54.215 70.3208 54.2994 70.3208ZM59.2103 72.9651C59.2103 72.8807 59.1419 72.8123 59.0575 72.8123C58.9732 72.8123 58.9048 72.8807 58.9048 72.9651C58.9048 73.0495 58.9732 73.1179 59.0575 73.1179C59.1419 73.1179 59.2103 73.0495 59.2103 72.9651ZM51.4836 73.8584C51.4836 73.774 51.4152 73.7056 51.3309 73.7056C51.2465 73.7056 51.1781 73.774 51.1781 73.8584C51.1781 73.9428 51.2465 74.0112 51.3309 74.0112C51.4152 74.0112 51.4836 73.9428 51.4836 73.8584ZM45.395 71.3789C45.4793 71.3789 45.5477 71.4473 45.5477 71.5316C45.5477 71.616 45.4793 71.6844 45.395 71.6844C45.3106 71.6844 45.2422 71.616 45.2422 71.5316C45.2422 71.4473 45.3106 71.3789 45.395 71.3789ZM56.1479 66.8542C56.1479 66.7698 56.0795 66.7014 55.9951 66.7014C55.9107 66.7014 55.8423 66.7698 55.8423 66.8542C55.8423 66.9386 55.9107 67.007 55.9951 67.007C56.0795 67.007 56.1479 66.9386 56.1479 66.8542ZM60.5885 69.1455C60.6729 69.1455 60.7413 69.2139 60.7413 69.2983C60.7413 69.3826 60.6729 69.451 60.5885 69.451C60.5041 69.451 60.4357 69.3826 60.4357 69.2983C60.4357 69.2139 60.5041 69.1455 60.5885 69.1455ZM59.5163 69.9099C59.5163 69.8256 59.4479 69.7572 59.3635 69.7572C59.2791 69.7572 59.2107 69.8256 59.2107 69.9099C59.2107 69.9943 59.2791 70.0627 59.3635 70.0627C59.4479 70.0627 59.5163 69.9943 59.5163 69.9099ZM65.4884 72.8123C65.5728 72.8123 65.6412 72.8807 65.6412 72.9651C65.6412 73.0495 65.5728 73.1179 65.4884 73.1179C65.404 73.1179 65.3356 73.0495 65.3356 72.9651C65.3356 72.8807 65.404 72.8123 65.4884 72.8123ZM74.8279 66.8542C74.8279 66.7698 74.7595 66.7014 74.6751 66.7014C74.5908 66.7014 74.5224 66.7698 74.5224 66.8542C74.5224 66.9386 74.5908 67.007 74.6751 67.007C74.7595 67.007 74.8279 66.9386 74.8279 66.8542ZM89.9868 66.0903C90.0711 66.0903 90.1395 66.1587 90.1395 66.2431C90.1395 66.3275 90.0711 66.3959 89.9868 66.3959C89.9024 66.3959 89.834 66.3275 89.834 66.2431C89.834 66.1587 89.9024 66.0903 89.9868 66.0903ZM108.514 68.6877C108.514 68.6033 108.445 68.5349 108.361 68.5349C108.276 68.5349 108.208 68.6033 108.208 68.6877C108.208 68.7721 108.276 68.8405 108.361 68.8405C108.445 68.8405 108.514 68.7721 108.514 68.6877ZM111.423 72.2012C111.507 72.2012 111.575 72.2696 111.575 72.354C111.575 72.4383 111.507 72.5067 111.423 72.5067C111.338 72.5067 111.27 72.4383 111.27 72.354C111.27 72.2696 111.338 72.2012 111.423 72.2012ZM114.638 69.9099C114.638 69.8256 114.57 69.7572 114.485 69.7572C114.401 69.7572 114.332 69.8256 114.332 69.9099C114.332 69.9943 114.401 70.0627 114.485 70.0627C114.57 70.0627 114.638 69.9943 114.638 69.9099ZM119.809 66.5134C119.893 66.5134 119.961 66.5818 119.961 66.6662C119.961 66.7506 119.893 66.819 119.809 66.819C119.724 66.819 119.656 66.7506 119.656 66.6662C119.656 66.5818 119.724 66.5134 119.809 66.5134ZM126.534 68.1473C126.534 68.0629 126.466 67.9945 126.381 67.9945C126.297 67.9945 126.228 68.0629 126.228 68.1473C126.228 68.2317 126.297 68.3001 126.381 68.3001C126.466 68.3001 126.534 68.2317 126.534 68.1473ZM121.081 71.5901C121.165 71.5901 121.234 71.6585 121.234 71.7429C121.234 71.8272 121.165 71.8956 121.081 71.8956C120.996 71.8956 120.928 71.8272 120.928 71.7429C120.928 71.6585 120.996 71.5901 121.081 71.5901ZM127.17 74.281C127.17 74.1966 127.102 74.1282 127.017 74.1282C126.933 74.1282 126.864 74.1966 126.864 74.281C126.864 74.3653 126.933 74.4337 127.017 74.4337C127.102 74.4337 127.17 74.3653 127.17 74.281ZM116.417 74.34C116.501 74.34 116.57 74.4084 116.57 74.4927C116.57 74.5771 116.501 74.6455 116.417 74.6455C116.333 74.6455 116.264 74.5771 116.264 74.4927C116.264 74.4084 116.333 74.34 116.417 74.34ZM105.451 73.5763C105.451 73.492 105.383 73.4236 105.298 73.4236C105.214 73.4236 105.146 73.492 105.146 73.5763C105.146 73.6607 105.214 73.7291 105.298 73.7291C105.383 73.7291 105.451 73.6607 105.451 73.5763ZM105.298 67.0073C105.383 67.0073 105.451 67.0757 105.451 67.1601C105.451 67.2444 105.383 67.3128 105.298 67.3128C105.214 67.3128 105.146 67.2444 105.146 67.1601C105.146 67.0757 105.214 67.0073 105.298 67.0073ZM96.2644 74.1874C96.2644 74.1031 96.196 74.0347 96.1116 74.0347C96.0273 74.0347 95.9589 74.1031 95.9589 74.1874C95.9589 74.2718 96.0273 74.3402 96.1116 74.3402C96.196 74.3402 96.2644 74.2718 96.2644 74.1874ZM77.4311 73.1177C77.5154 73.1177 77.5838 73.1861 77.5838 73.2705C77.5838 73.3549 77.5154 73.4233 77.4311 73.4233C77.3467 73.4233 77.2783 73.3549 77.2783 73.2705C77.2783 73.1861 77.3467 73.1177 77.4311 73.1177Z" fill="url(#paint9_linear_11011_93372)"/>
<path opacity="0.3" fill-rule="evenodd" clip-rule="evenodd" d="M50.39 87.2221C50.39 87.1377 50.3216 87.0693 50.2372 87.0693C50.1528 87.0693 50.0844 87.1377 50.0844 87.2221C50.0844 87.3065 50.1528 87.3749 50.2372 87.3749C50.3216 87.3749 50.39 87.3065 50.39 87.2221ZM55.7496 91.2998C55.8339 91.2998 55.9023 91.3682 55.9023 91.4525C55.9023 91.5369 55.8339 91.6053 55.7496 91.6053C55.6652 91.6053 55.5968 91.5369 55.5968 91.4525C55.5968 91.3682 55.6652 91.2998 55.7496 91.2998ZM60.6605 93.9441C60.6605 93.8597 60.5921 93.7913 60.5077 93.7913C60.4234 93.7913 60.355 93.8597 60.355 93.9441C60.355 94.0285 60.4234 94.0969 60.5077 94.0969C60.5921 94.0969 60.6605 94.0285 60.6605 93.9441ZM52.9338 94.8374C52.9338 94.753 52.8654 94.6846 52.7811 94.6846C52.6967 94.6846 52.6283 94.753 52.6283 94.8374C52.6283 94.9218 52.6967 94.9902 52.7811 94.9902C52.8654 94.9902 52.9338 94.9218 52.9338 94.8374ZM46.8452 92.3579C46.9295 92.3579 46.9979 92.4263 46.9979 92.5106C46.9979 92.595 46.9295 92.6634 46.8452 92.6634C46.7608 92.6634 46.6924 92.595 46.6924 92.5106C46.6924 92.4263 46.7608 92.3579 46.8452 92.3579ZM57.5981 87.8332C57.5981 87.7488 57.5297 87.6804 57.4453 87.6804C57.3609 87.6804 57.2925 87.7488 57.2925 87.8332C57.2925 87.9176 57.3609 87.986 57.4453 87.986C57.5297 87.986 57.5981 87.9176 57.5981 87.8332ZM62.0387 90.1245C62.1231 90.1245 62.1915 90.1929 62.1915 90.2773C62.1915 90.3616 62.1231 90.43 62.0387 90.43C61.9543 90.43 61.8859 90.3616 61.8859 90.2773C61.8859 90.1929 61.9543 90.1245 62.0387 90.1245ZM60.9665 90.8889C60.9665 90.8046 60.8981 90.7362 60.8137 90.7362C60.7293 90.7362 60.6609 90.8046 60.6609 90.8889C60.6609 90.9733 60.7293 91.0417 60.8137 91.0417C60.8981 91.0417 60.9665 90.9733 60.9665 90.8889ZM66.9386 93.7913C67.023 93.7913 67.0914 93.8597 67.0914 93.9441C67.0914 94.0285 67.023 94.0969 66.9386 94.0969C66.8542 94.0969 66.7858 94.0285 66.7858 93.9441C66.7858 93.8597 66.8542 93.7913 66.9386 93.7913ZM76.2781 87.8332C76.2781 87.7488 76.2097 87.6804 76.1253 87.6804C76.041 87.6804 75.9726 87.7488 75.9726 87.8332C75.9726 87.9176 76.041 87.986 76.1253 87.986C76.2097 87.986 76.2781 87.9176 76.2781 87.8332ZM91.437 87.0693C91.5213 87.0693 91.5897 87.1377 91.5897 87.2221C91.5897 87.3065 91.5213 87.3749 91.437 87.3749C91.3526 87.3749 91.2842 87.3065 91.2842 87.2221C91.2842 87.1377 91.3526 87.0693 91.437 87.0693ZM109.964 89.6667C109.964 89.5823 109.895 89.5139 109.811 89.5139C109.727 89.5139 109.658 89.5823 109.658 89.6667C109.658 89.7511 109.727 89.8195 109.811 89.8195C109.895 89.8195 109.964 89.7511 109.964 89.6667ZM112.873 93.1802C112.957 93.1802 113.026 93.2486 113.026 93.333C113.026 93.4173 112.957 93.4857 112.873 93.4857C112.789 93.4857 112.72 93.4173 112.72 93.333C112.72 93.2486 112.789 93.1802 112.873 93.1802ZM116.088 90.8889C116.088 90.8046 116.02 90.7362 115.935 90.7362C115.851 90.7362 115.783 90.8046 115.783 90.8889C115.783 90.9733 115.851 91.0417 115.935 91.0417C116.02 91.0417 116.088 90.9733 116.088 90.8889ZM121.259 87.4924C121.343 87.4924 121.412 87.5608 121.412 87.6452C121.412 87.7296 121.343 87.798 121.259 87.798C121.174 87.798 121.106 87.7296 121.106 87.6452C121.106 87.5608 121.174 87.4924 121.259 87.4924ZM127.984 89.1263C127.984 89.0419 127.916 88.9735 127.831 88.9735C127.747 88.9735 127.679 89.0419 127.679 89.1263C127.679 89.2107 127.747 89.2791 127.831 89.2791C127.916 89.2791 127.984 89.2107 127.984 89.1263ZM122.531 92.5691C122.615 92.5691 122.684 92.6375 122.684 92.7219C122.684 92.8062 122.615 92.8746 122.531 92.8746C122.447 92.8746 122.378 92.8062 122.378 92.7219C122.378 92.6375 122.447 92.5691 122.531 92.5691ZM128.62 95.26C128.62 95.1756 128.552 95.1072 128.467 95.1072C128.383 95.1072 128.315 95.1756 128.315 95.26C128.315 95.3443 128.383 95.4127 128.467 95.4127C128.552 95.4127 128.62 95.3443 128.62 95.26ZM117.867 95.319C117.951 95.319 118.02 95.3874 118.02 95.4717C118.02 95.5561 117.951 95.6245 117.867 95.6245C117.782 95.6245 117.714 95.5561 117.714 95.4717C117.714 95.3874 117.782 95.319 117.867 95.319ZM106.901 94.5553C106.901 94.471 106.833 94.4026 106.749 94.4026C106.664 94.4026 106.596 94.471 106.596 94.5553C106.596 94.6397 106.664 94.7081 106.749 94.7081C106.833 94.7081 106.901 94.6397 106.901 94.5553ZM106.749 87.9863C106.833 87.9863 106.901 88.0547 106.901 88.1391C106.901 88.2234 106.833 88.2918 106.749 88.2918C106.664 88.2918 106.596 88.2234 106.596 88.1391C106.596 88.0547 106.664 87.9863 106.749 87.9863ZM97.7146 95.1665C97.7146 95.0821 97.6462 95.0137 97.5618 95.0137C97.4775 95.0137 97.4091 95.0821 97.4091 95.1665C97.4091 95.2508 97.4775 95.3192 97.5618 95.3192C97.6462 95.3192 97.7146 95.2508 97.7146 95.1665ZM78.8813 94.0967C78.9656 94.0967 79.034 94.1651 79.034 94.2495C79.034 94.3339 78.9656 94.4023 78.8813 94.4023C78.7969 94.4023 78.7285 94.3339 78.7285 94.2495C78.7285 94.1651 78.7969 94.0967 78.8813 94.0967Z" fill="url(#paint10_linear_11011_93372)"/>
<path d="M66.0629 142.535L74.3457 147.066C83.6225 152.141 94.8857 151.957 103.992 146.582L108.183 144.108C117.325 138.713 122.935 128.888 122.935 118.273V112.101C122.935 106.322 124.604 100.666 127.741 95.8131L146.173 67.3034C147.781 64.8158 149.749 62.5802 152.012 60.6692L164.505 50.1204C172.627 43.2629 174.426 31.4562 168.716 22.4908C164.983 16.6307 158.62 12.9675 151.678 12.6829L89.3063 10.125L29.3417 12.5263C20.2115 12.8919 12.3185 19.0092 9.68658 27.7594C7.72257 34.2891 8.98471 41.3637 13.0855 46.8113L28.2013 66.8918C29.1134 68.1035 29.9324 69.3827 30.6511 70.7183L45.6902 98.6662C47.3217 101.698 48.4191 104.988 48.9343 108.392L50.7983 120.706C52.2001 129.966 57.8462 138.04 66.0629 142.535Z" fill="url(#paint11_linear_11011_93372)"/>
<path d="M72.327 80.2499L9.9375 61.8749L23.0919 88.1248L90.3673 112.875L72.327 80.2499Z" fill="url(#paint12_linear_11011_93372)"/>
<path d="M105.777 79.1247L171.173 56.9998L156.14 84.3747L90.3677 112.875L105.777 79.1247Z" fill="url(#paint13_linear_11011_93372)"/>
<path d="M90.3677 112.875L23.0923 88.1251V132.375L92.2469 162L90.3677 112.875Z" fill="url(#paint14_linear_11011_93372)"/>
<path d="M90.3676 112.875L156.14 84.3749L157.267 127.875L92.2468 162L90.3676 112.875Z" fill="url(#paint15_linear_11011_93372)"/>
<defs>
<linearGradient id="paint0_linear_11011_93372" x1="103.81" y1="53.7835" x2="115.601" y2="152.391" gradientUnits="userSpaceOnUse">
<stop stop-color="#292942"/>
<stop offset="1" stop-color="#161622"/>
</linearGradient>
<linearGradient id="paint1_linear_11011_93372" x1="79.5155" y1="134.175" x2="37.9225" y2="76.0965" gradientUnits="userSpaceOnUse">
<stop stop-color="#1A1A29"/>
<stop offset="1" stop-color="#232338"/>
</linearGradient>
<linearGradient id="paint2_linear_11011_93372" x1="124.005" y1="43.875" x2="117.496" y2="80.2088" gradientUnits="userSpaceOnUse">
<stop stop-color="#404068"/>
<stop offset="1" stop-color="#292942"/>
</linearGradient>
<linearGradient id="paint3_linear_11011_93372" x1="54.6623" y1="43.1251" x2="46.6597" y2="83.1501" gradientUnits="userSpaceOnUse">
<stop stop-color="#404068"/>
<stop offset="1" stop-color="#292942"/>
</linearGradient>
<linearGradient id="paint4_linear_11011_93372" x1="89.0632" y1="18.4704" x2="90.8691" y2="145.134" gradientUnits="userSpaceOnUse">
<stop stop-color="#322837" stop-opacity="0"/>
<stop offset="0.484673" stop-color="#4BF2A2" stop-opacity="0.08"/>
<stop offset="0.824673" stop-color="#DD40CD"/>
</linearGradient>
<linearGradient id="paint5_linear_11011_93372" x1="87.5003" y1="20.25" x2="87.5003" y2="83.6381" gradientUnits="userSpaceOnUse">
<stop stop-color="#26A17B"/>
<stop offset="1" stop-color="#20795D"/>
</linearGradient>
<linearGradient id="paint6_linear_11011_93372" x1="88.125" y1="34.8915" x2="88.125" y2="69.055" gradientUnits="userSpaceOnUse">
<stop stop-color="white"/>
<stop offset="0.66" stop-color="#D5FFF2"/>
</linearGradient>
<linearGradient id="paint7_linear_11011_93372" x1="11.2183" y1="35.3456" x2="175.718" y2="72.4833" gradientUnits="userSpaceOnUse">
<stop stop-color="#4BF2A2"/>
<stop offset="0.522948" stop-color="#A89FE7"/>
<stop offset="0.669499" stop-color="#E1C4F4"/>
<stop offset="1" stop-color="#DD40CD"/>
<stop offset="1" stop-color="#DD40CD"/>
</linearGradient>
<linearGradient id="paint8_linear_11011_93372" x1="31.8721" y1="54.8275" x2="148.285" y2="81.1094" gradientUnits="userSpaceOnUse">
<stop stop-color="#4BF2A2"/>
<stop offset="0.522948" stop-color="#A89FE7"/>
<stop offset="0.669499" stop-color="#E1C4F4"/>
<stop offset="1" stop-color="#DD40CD"/>
<stop offset="1" stop-color="#DD40CD"/>
</linearGradient>
<linearGradient id="paint9_linear_11011_93372" x1="40.3724" y1="70.3679" x2="133.011" y2="91.2823" gradientUnits="userSpaceOnUse">
<stop stop-color="#4BF2A2"/>
<stop offset="0.522948" stop-color="#A89FE7"/>
<stop offset="0.669499" stop-color="#E1C4F4"/>
<stop offset="1" stop-color="#DD40CD"/>
<stop offset="1" stop-color="#DD40CD"/>
</linearGradient>
<linearGradient id="paint10_linear_11011_93372" x1="41.8226" y1="91.3469" x2="134.461" y2="112.261" gradientUnits="userSpaceOnUse">
<stop stop-color="#4BF2A2"/>
<stop offset="0.522948" stop-color="#A89FE7"/>
<stop offset="0.669499" stop-color="#E1C4F4"/>
<stop offset="1" stop-color="#DD40CD"/>
<stop offset="1" stop-color="#DD40CD"/>
</linearGradient>
<linearGradient id="paint11_linear_11011_93372" x1="90.3093" y1="28.5954" x2="92.2096" y2="155.256" gradientUnits="userSpaceOnUse">
<stop stop-color="#322837" stop-opacity="0"/>
<stop offset="0.269673" stop-color="#4BF2A2" stop-opacity="0.28"/>
<stop offset="0.704673" stop-color="#DD40CD"/>
<stop offset="0.874673" stop-color="#DD40CD"/>
</linearGradient>
<linearGradient id="paint12_linear_11011_93372" x1="50.1524" y1="61.8749" x2="39.8667" y2="110.708" gradientUnits="userSpaceOnUse">
<stop stop-color="#404068"/>
<stop offset="1" stop-color="#292942"/>
</linearGradient>
<linearGradient id="paint13_linear_11011_93372" x1="130.77" y1="56.9997" x2="142.961" y2="110.075" gradientUnits="userSpaceOnUse">
<stop stop-color="#404068"/>
<stop offset="1" stop-color="#292942"/>
</linearGradient>
<linearGradient id="paint14_linear_11011_93372" x1="57.6696" y1="88.1251" x2="34.387" y2="153.738" gradientUnits="userSpaceOnUse">
<stop stop-color="#404068"/>
<stop offset="1" stop-color="#292942"/>
</linearGradient>
<linearGradient id="paint15_linear_11011_93372" x1="100.139" y1="132.375" x2="137.454" y2="145.429" gradientUnits="userSpaceOnUse">
<stop stop-color="#404068"/>
<stop offset="1" stop-color="#292942"/>
</linearGradient>
<clipPath id="clip0_11011_93372">
<rect width="66.3749" height="66.3749" fill="white" transform="translate(54.9375 20.25)"/>
</clipPath>
</defs>
</svg>
