<svg width="135" height="32" viewBox="0 0 135 32" fill="none" xmlns="http://www.w3.org/2000/svg">
<path d="M37.708 13.496C38.468 13.496 39.064 13.772 39.496 14.324C39.928 14.876 40.144 15.692 40.144 16.772C40.144 17.492 40.04 18.104 39.832 18.608C39.632 19.104 39.344 19.48 38.968 19.736C38.6 19.992 38.156 20.12 37.636 20.12C37.292 20.12 36.988 20.064 36.724 19.952C36.468 19.84 36.252 19.692 36.076 19.508C35.908 19.324 35.772 19.12 35.668 18.896H35.62C35.636 19.096 35.648 19.316 35.656 19.556C35.664 19.788 35.668 20.004 35.668 20.204V22.832H34.984V13.616H35.536L35.632 14.816H35.668C35.772 14.584 35.912 14.368 36.088 14.168C36.272 13.968 36.496 13.808 36.76 13.688C37.024 13.56 37.34 13.496 37.708 13.496ZM37.588 14.084C37.156 14.084 36.796 14.184 36.508 14.384C36.22 14.584 36.008 14.88 35.872 15.272C35.736 15.656 35.668 16.132 35.668 16.7V16.82C35.668 17.42 35.732 17.924 35.86 18.332C35.996 18.732 36.204 19.032 36.484 19.232C36.764 19.432 37.12 19.532 37.552 19.532C37.96 19.532 38.304 19.424 38.584 19.208C38.864 18.984 39.076 18.668 39.22 18.26C39.364 17.844 39.436 17.348 39.436 16.772C39.436 15.9 39.28 15.236 38.968 14.78C38.664 14.316 38.204 14.084 37.588 14.084ZM46.7974 16.808C46.7974 17.304 46.7374 17.756 46.6174 18.164C46.5054 18.564 46.3334 18.912 46.1014 19.208C45.8774 19.496 45.5934 19.72 45.2494 19.88C44.9134 20.04 44.5254 20.12 44.0854 20.12C43.6694 20.12 43.2934 20.044 42.9574 19.892C42.6294 19.732 42.3494 19.508 42.1174 19.22C41.8854 18.924 41.7094 18.572 41.5894 18.164C41.4694 17.756 41.4094 17.304 41.4094 16.808C41.4094 16.112 41.5174 15.52 41.7334 15.032C41.9494 14.536 42.2614 14.156 42.6694 13.892C43.0854 13.628 43.5774 13.496 44.1454 13.496C44.7214 13.496 45.2054 13.636 45.5974 13.916C45.9894 14.188 46.2854 14.572 46.4854 15.068C46.6934 15.564 46.7974 16.144 46.7974 16.808ZM42.1174 16.808C42.1174 17.352 42.1894 17.832 42.3334 18.248C42.4774 18.656 42.6934 18.972 42.9814 19.196C43.2774 19.42 43.6494 19.532 44.0974 19.532C44.5534 19.532 44.9294 19.42 45.2254 19.196C45.5214 18.964 45.7414 18.644 45.8854 18.236C46.0294 17.82 46.1014 17.344 46.1014 16.808C46.1014 16.272 46.0334 15.8 45.8974 15.392C45.7614 14.984 45.5494 14.664 45.2614 14.432C44.9734 14.2 44.5934 14.084 44.1214 14.084C43.4574 14.084 42.9574 14.324 42.6214 14.804C42.2854 15.284 42.1174 15.952 42.1174 16.808ZM51.815 15.848C51.775 15.712 51.735 15.58 51.695 15.452C51.663 15.324 51.631 15.204 51.599 15.092C51.567 14.972 51.535 14.856 51.503 14.744C51.479 14.632 51.455 14.528 51.431 14.432H51.395C51.379 14.528 51.355 14.632 51.323 14.744C51.299 14.856 51.271 14.976 51.239 15.104C51.207 15.224 51.171 15.348 51.131 15.476C51.099 15.596 51.063 15.724 51.023 15.86L49.775 20H49.055L47.363 13.616H48.071L49.067 17.564C49.131 17.804 49.183 18.024 49.223 18.224C49.271 18.416 49.311 18.596 49.343 18.764C49.383 18.924 49.415 19.072 49.439 19.208H49.475C49.491 19.112 49.511 19.008 49.535 18.896C49.559 18.776 49.587 18.652 49.619 18.524C49.651 18.396 49.687 18.26 49.727 18.116C49.767 17.964 49.811 17.812 49.859 17.66L51.083 13.616H51.791L52.955 17.648C53.019 17.84 53.075 18.032 53.123 18.224C53.171 18.408 53.215 18.584 53.255 18.752C53.295 18.912 53.327 19.064 53.351 19.208H53.387C53.403 19.072 53.427 18.924 53.459 18.764C53.491 18.596 53.531 18.412 53.579 18.212C53.627 18.012 53.679 17.796 53.735 17.564L54.707 13.616H55.403L53.771 20H53.015L51.815 15.848ZM58.8385 13.496C59.3505 13.496 59.7785 13.624 60.1225 13.88C60.4665 14.128 60.7265 14.472 60.9025 14.912C61.0865 15.352 61.1785 15.86 61.1785 16.436V16.892H56.9065C56.9145 17.748 57.0985 18.4 57.4585 18.848C57.8265 19.296 58.3505 19.52 59.0305 19.52C59.4065 19.52 59.7345 19.488 60.0145 19.424C60.2945 19.36 60.5985 19.248 60.9265 19.088V19.712C60.6305 19.856 60.3345 19.96 60.0385 20.024C59.7425 20.088 59.3985 20.12 59.0065 20.12C58.4065 20.12 57.8945 19.988 57.4705 19.724C57.0545 19.46 56.7385 19.084 56.5225 18.596C56.3065 18.1 56.1985 17.524 56.1985 16.868C56.1985 16.212 56.2985 15.632 56.4985 15.128C56.7065 14.624 57.0065 14.228 57.3985 13.94C57.7985 13.644 58.2785 13.496 58.8385 13.496ZM58.8265 14.072C58.2825 14.072 57.8425 14.268 57.5065 14.66C57.1705 15.044 56.9745 15.6 56.9185 16.328H60.4705C60.4705 15.88 60.4105 15.488 60.2905 15.152C60.1785 14.816 59.9985 14.552 59.7505 14.36C59.5105 14.168 59.2025 14.072 58.8265 14.072ZM65.2889 13.508C65.4329 13.508 65.5729 13.52 65.7089 13.544C65.8529 13.56 65.9769 13.584 66.0809 13.616L65.9849 14.24C65.8729 14.208 65.7529 14.184 65.6249 14.168C65.5049 14.144 65.3769 14.132 65.2409 14.132C64.9689 14.132 64.7249 14.188 64.5089 14.3C64.2929 14.412 64.1049 14.572 63.9449 14.78C63.7929 14.988 63.6729 15.236 63.5849 15.524C63.5049 15.812 63.4649 16.136 63.4649 16.496V20H62.7809V13.616H63.3569L63.4289 14.816H63.4649C63.5609 14.568 63.6929 14.348 63.8609 14.156C64.0369 13.956 64.2449 13.8 64.4849 13.688C64.7249 13.568 64.9929 13.508 65.2889 13.508ZM69.3151 13.496C69.8271 13.496 70.2551 13.624 70.5991 13.88C70.9431 14.128 71.2031 14.472 71.3791 14.912C71.5631 15.352 71.6551 15.86 71.6551 16.436V16.892H67.3831C67.3911 17.748 67.5751 18.4 67.9351 18.848C68.3031 19.296 68.8271 19.52 69.5071 19.52C69.8831 19.52 70.2111 19.488 70.4911 19.424C70.7711 19.36 71.0751 19.248 71.4031 19.088V19.712C71.1071 19.856 70.8111 19.96 70.5151 20.024C70.2191 20.088 69.8751 20.12 69.4831 20.12C68.8831 20.12 68.3711 19.988 67.9471 19.724C67.5311 19.46 67.2151 19.084 66.9991 18.596C66.7831 18.1 66.6751 17.524 66.6751 16.868C66.6751 16.212 66.7751 15.632 66.9751 15.128C67.1831 14.624 67.4831 14.228 67.8751 13.94C68.2751 13.644 68.7551 13.496 69.3151 13.496ZM69.3031 14.072C68.7591 14.072 68.3191 14.268 67.9831 14.66C67.6471 15.044 67.4511 15.6 67.3951 16.328H70.9471C70.9471 15.88 70.8871 15.488 70.7671 15.152C70.6551 14.816 70.4751 14.552 70.2271 14.36C69.9871 14.168 69.6791 14.072 69.3031 14.072ZM75.4054 20.12C74.6054 20.12 73.9894 19.848 73.5574 19.304C73.1254 18.752 72.9094 17.944 72.9094 16.88C72.9094 15.776 73.1334 14.936 73.5814 14.36C74.0374 13.784 74.6654 13.496 75.4654 13.496C75.8014 13.496 76.0934 13.552 76.3414 13.664C76.5894 13.768 76.7974 13.912 76.9654 14.096C77.1414 14.28 77.2814 14.488 77.3854 14.72H77.4334C77.4254 14.528 77.4134 14.32 77.3974 14.096C77.3894 13.864 77.3854 13.656 77.3854 13.472V10.88H78.0694V20H77.5174L77.4214 18.884H77.3854C77.2814 19.108 77.1414 19.316 76.9654 19.508C76.7894 19.692 76.5734 19.84 76.3174 19.952C76.0614 20.064 75.7574 20.12 75.4054 20.12ZM75.5014 19.532C76.1894 19.532 76.6774 19.308 76.9654 18.86C77.2534 18.412 77.3974 17.764 77.3974 16.916V16.808C77.3974 15.928 77.2534 15.256 76.9654 14.792C76.6774 14.32 76.2054 14.084 75.5494 14.084C74.9174 14.084 74.4374 14.328 74.1094 14.816C73.7814 15.296 73.6174 15.988 73.6174 16.892C73.6174 17.756 73.7734 18.412 74.0854 18.86C74.3974 19.308 74.8694 19.532 75.5014 19.532ZM83.6326 13.4C83.6326 13.632 83.6286 13.88 83.6206 14.144C83.6126 14.4 83.6006 14.612 83.5846 14.78H83.6326C83.7846 14.412 84.0326 14.108 84.3766 13.868C84.7206 13.62 85.1486 13.496 85.6606 13.496C86.4286 13.496 87.0286 13.776 87.4606 14.336C87.8926 14.888 88.1086 15.708 88.1086 16.796C88.1086 17.468 88.0126 18.052 87.8206 18.548C87.6286 19.044 87.3406 19.432 86.9566 19.712C86.5806 19.984 86.1206 20.12 85.5766 20.12C85.0726 20.12 84.6606 20.008 84.3406 19.784C84.0286 19.56 83.7966 19.288 83.6446 18.968H83.5846L83.4526 20H82.9486V10.88H83.6326V13.4ZM85.5526 14.084C85.0966 14.084 84.7246 14.188 84.4366 14.396C84.1566 14.604 83.9526 14.908 83.8246 15.308C83.6966 15.708 83.6326 16.204 83.6326 16.796V16.88C83.6326 17.744 83.7726 18.404 84.0526 18.86C84.3406 19.308 84.8166 19.532 85.4806 19.532C86.1126 19.532 86.5886 19.296 86.9086 18.824C87.2366 18.352 87.4006 17.676 87.4006 16.796C87.4006 15.892 87.2486 15.216 86.9446 14.768C86.6406 14.312 86.1766 14.084 85.5526 14.084ZM88.5273 13.616H89.2713L90.6753 17.588C90.7633 17.82 90.8393 18.036 90.9033 18.236C90.9673 18.436 91.0233 18.624 91.0713 18.8C91.1273 18.968 91.1713 19.124 91.2033 19.268H91.2273C91.2833 19.084 91.3553 18.848 91.4433 18.56C91.5313 18.264 91.6353 17.944 91.7553 17.6L93.1353 13.616H93.8793L91.1793 21.14C91.0433 21.508 90.8873 21.824 90.7113 22.088C90.5433 22.352 90.3433 22.552 90.1113 22.688C89.8873 22.832 89.6153 22.904 89.2953 22.904C89.1513 22.904 89.0193 22.892 88.8993 22.868C88.7793 22.852 88.6673 22.828 88.5633 22.796V22.22C88.6593 22.244 88.7593 22.264 88.8633 22.28C88.9673 22.304 89.0833 22.316 89.2113 22.316C89.4193 22.316 89.6033 22.268 89.7633 22.172C89.9233 22.084 90.0633 21.944 90.1833 21.752C90.3033 21.568 90.4113 21.336 90.5073 21.056L90.8913 19.976L88.5273 13.616ZM104.488 16.976C104.488 17.568 104.364 18.104 104.116 18.584C103.876 19.056 103.508 19.432 103.012 19.712C102.524 19.984 101.912 20.12 101.176 20.12C100.12 20.12 99.3123 19.832 98.7523 19.256C98.2003 18.672 97.9243 17.904 97.9243 16.952V11.432H99.5323V16.796C99.5323 17.492 99.6723 18.004 99.9523 18.332C100.232 18.652 100.652 18.812 101.212 18.812C101.604 18.812 101.92 18.736 102.16 18.584C102.408 18.432 102.588 18.204 102.7 17.9C102.812 17.588 102.868 17.216 102.868 16.784V11.432H104.488V16.976ZM109.71 13.376C110.39 13.376 110.926 13.564 111.318 13.94C111.71 14.316 111.906 14.924 111.906 15.764V20H110.31V16.064C110.31 15.576 110.226 15.212 110.058 14.972C109.89 14.724 109.626 14.6 109.266 14.6C108.73 14.6 108.366 14.792 108.174 15.176C107.982 15.552 107.886 16.1 107.886 16.82V20H106.29V13.496H107.514L107.742 14.348H107.802C107.946 14.124 108.114 13.94 108.306 13.796C108.498 13.652 108.714 13.548 108.954 13.484C109.194 13.412 109.446 13.376 109.71 13.376ZM115.198 13.496V20H113.614V13.496H115.198ZM114.418 10.988C114.65 10.988 114.85 11.048 115.018 11.168C115.186 11.28 115.27 11.484 115.27 11.78C115.27 12.068 115.186 12.276 115.018 12.404C114.85 12.524 114.65 12.584 114.418 12.584C114.17 12.584 113.962 12.524 113.794 12.404C113.626 12.276 113.542 12.068 113.542 11.78C113.542 11.484 113.626 11.28 113.794 11.168C113.962 11.048 114.17 10.988 114.418 10.988ZM119.474 18.908C119.65 18.908 119.818 18.892 119.978 18.86C120.146 18.82 120.302 18.776 120.446 18.728V19.856C120.278 19.928 120.074 19.988 119.834 20.036C119.594 20.092 119.326 20.12 119.03 20.12C118.662 20.12 118.334 20.06 118.046 19.94C117.758 19.812 117.53 19.596 117.362 19.292C117.202 18.988 117.122 18.564 117.122 18.02V14.636H116.306V13.976L117.218 13.448L117.698 12.068H118.706V13.496H120.386V14.636H118.706V18.008C118.706 18.312 118.774 18.54 118.91 18.692C119.054 18.836 119.242 18.908 119.474 18.908ZM124.234 13.376C125.018 13.376 125.618 13.56 126.034 13.928C126.45 14.288 126.658 14.856 126.658 15.632V20H125.542L125.23 19.1H125.182C125.006 19.332 124.826 19.528 124.642 19.688C124.458 19.84 124.246 19.948 124.006 20.012C123.766 20.084 123.478 20.12 123.142 20.12C122.782 20.12 122.458 20.048 122.17 19.904C121.882 19.76 121.654 19.54 121.486 19.244C121.318 18.94 121.234 18.56 121.234 18.104C121.234 17.432 121.466 16.928 121.93 16.592C122.394 16.248 123.09 16.06 124.018 16.028L125.062 15.992V15.668C125.062 15.252 124.974 14.956 124.798 14.78C124.622 14.604 124.382 14.516 124.078 14.516C123.79 14.516 123.498 14.564 123.202 14.66C122.914 14.756 122.63 14.868 122.35 14.996L121.858 13.94C122.186 13.772 122.55 13.636 122.95 13.532C123.35 13.428 123.778 13.376 124.234 13.376ZM124.39 16.952C123.822 16.976 123.426 17.092 123.202 17.3C122.978 17.5 122.866 17.772 122.866 18.116C122.866 18.42 122.942 18.64 123.094 18.776C123.254 18.912 123.462 18.98 123.718 18.98C124.094 18.98 124.414 18.856 124.678 18.608C124.942 18.352 125.074 17.976 125.074 17.48V16.928L124.39 16.952ZM131.704 13.376C132.408 13.376 132.972 13.66 133.396 14.228C133.828 14.788 134.044 15.624 134.044 16.736C134.044 17.472 133.944 18.092 133.744 18.596C133.544 19.1 133.264 19.48 132.904 19.736C132.544 19.992 132.128 20.12 131.656 20.12C131.36 20.12 131.1 20.08 130.876 20C130.66 19.912 130.476 19.804 130.324 19.676C130.172 19.54 130.044 19.396 129.94 19.244H129.856C129.88 19.388 129.9 19.552 129.916 19.736C129.932 19.912 129.94 20.08 129.94 20.24V22.88H128.344V13.496H129.64L129.856 14.36H129.94C130.052 14.176 130.184 14.012 130.336 13.868C130.496 13.716 130.688 13.596 130.912 13.508C131.136 13.42 131.4 13.376 131.704 13.376ZM131.2 14.6C130.896 14.6 130.648 14.672 130.456 14.816C130.272 14.952 130.14 15.164 130.06 15.452C129.98 15.74 129.94 16.1 129.94 16.532V16.724C129.94 17.188 129.976 17.58 130.048 17.9C130.128 18.22 130.26 18.464 130.444 18.632C130.636 18.8 130.896 18.884 131.224 18.884C131.496 18.884 131.72 18.796 131.896 18.62C132.072 18.444 132.204 18.196 132.292 17.876C132.38 17.548 132.424 17.16 132.424 16.712C132.424 16.04 132.32 15.52 132.112 15.152C131.912 14.784 131.608 14.6 131.2 14.6Z" fill="#FAD7CA"/>
<path d="M96.9883 21.5H120.77V22.1H96.9883V21.5ZM120.766 21.5H127.486V22.1H120.766V21.5ZM127.48 21.5H134.584V22.1H127.48V21.5Z" fill="#FAD7CA"/>
<path d="M21.6774 18.5541C21.7747 18.9887 21.8527 19.4252 21.9075 19.8653C21.9967 20.5546 22.0214 21.2504 21.9815 21.944C21.8613 23.9114 21.2072 25.7104 20.0748 27.3373C18.6272 29.416 16.6609 30.8124 14.2121 31.5483C13.1602 31.864 12.0781 32.0428 11.3549 31.9912C8.30524 31.9928 5.92229 31.1397 3.91463 29.4912C3.69306 29.3093 3.47598 29.1177 3.2634 28.9166C2.67742 28.3612 2.1625 27.7382 1.72996 27.0612C1.26303 26.3278 0.880512 25.546 0.589387 24.7301C0.0248228 23.1708 -0.114172 21.5655 0.0873706 19.9386C0.304039 18.1876 0.840395 16.5219 1.59056 14.9138C2.18328 13.643 2.94054 12.4713 3.69837 11.2987C3.92268 10.9516 4.14703 10.6045 4.36719 10.2547C5.45993 8.51894 6.54613 6.77638 7.55916 4.99542C7.63084 4.86898 7.70129 4.742 7.77052 4.6145C8.03665 4.12634 8.28602 3.62938 8.53131 3.12963C8.66393 2.85843 8.79495 2.58632 8.92599 2.3142C9.12053 1.9102 9.31509 1.50616 9.5149 1.10498C9.529 1.07661 9.54284 1.04811 9.55668 1.01963C9.5926 0.945684 9.62848 0.871834 9.66861 0.800486C9.96459 0.280321 10.409 -0.00937168 11.0275 0.000231374C11.646 0.00983442 12.0937 0.30993 12.3639 0.840499C12.5177 1.14118 12.6572 1.45008 12.7967 1.75894C12.8915 1.96878 12.9862 2.17859 13.0854 2.38579C13.304 2.83927 13.5287 3.28928 13.7596 3.73582C13.7891 3.79224 13.8044 3.8547 13.8044 3.91808C13.8044 3.98145 13.7891 4.04392 13.7596 4.10033L12.5331 6.42707C12.5159 6.46065 12.4893 6.48879 12.4564 6.50826C12.4236 6.52773 12.3858 6.53775 12.3474 6.53716C12.309 6.53658 12.2715 6.52541 12.2393 6.50495C12.2071 6.48449 12.1814 6.45556 12.1652 6.42147C11.7155 5.50158 11.359 4.77295 11.312 4.68132C11.2598 4.57279 11.2018 4.46701 11.1383 4.36442C11.0479 4.22637 10.9519 4.22997 10.8546 4.36642C10.8281 4.40471 10.8044 4.44483 10.7838 4.48646L10.7736 4.50686C10.6837 4.68559 10.5927 4.86378 10.5005 5.04143C9.10037 7.74389 7.47127 10.3151 5.78003 12.8523C4.48738 14.7897 3.40526 16.8148 2.89057 19.0987C2.55616 20.5832 2.4834 22.0552 2.94576 23.5241C3.2356 24.4452 3.63501 25.2779 4.15215 26.0125C4.82999 26.9773 5.72511 27.7769 6.76853 28.3496C6.97266 28.463 7.18456 28.5697 7.40422 28.6697C9.70173 29.7161 12.0483 29.7289 14.3785 28.7686C16.0624 28.0735 17.3583 26.9208 18.2577 25.3551C18.6996 24.5852 19.3913 22.7943 19.4592 20.5135C19.4607 20.4535 19.476 20.3945 19.5041 20.3411L21.0306 17.445C21.0497 17.4088 21.0796 17.3791 21.1164 17.36C21.1531 17.3409 21.195 17.3332 21.2363 17.338C21.2776 17.3428 21.3165 17.3598 21.3477 17.3868C21.3789 17.4138 21.4009 17.4494 21.4108 17.489C21.5228 17.9335 21.6671 18.5081 21.6774 18.5541Z" fill="url(#paint0_linear_13055_5580)"/>
<path d="M20.8574 15.986C20.8536 16.0406 20.8382 16.0938 20.8119 16.1422C20.4832 16.7689 20.1839 17.3242 19.9137 17.8254C19.7296 18.167 19.559 18.4834 19.4019 18.7802C19.3831 18.8162 19.3535 18.8457 19.3171 18.8649C19.2807 18.8841 19.2393 18.892 19.1982 18.8877C19.1571 18.8834 19.1183 18.867 19.087 18.8406C19.0556 18.8143 19.0332 18.7793 19.0226 18.7402C18.8811 18.2128 18.765 17.8271 18.7131 17.6742C18.6612 17.5214 18.6076 17.3734 18.6076 17.3734C18.5737 17.2801 18.5385 17.1869 18.5026 17.0933C18.4929 17.0677 18.483 17.0425 18.473 17.0169C18.4677 17.0035 18.4625 16.9901 18.4572 16.9764C18.3438 16.6894 18.2224 16.4045 18.0929 16.1217L18.0798 16.0933L18.0774 16.0881C17.9706 15.8566 17.8588 15.6279 17.7422 15.4019C16.9912 14.0108 16.8964 14.4247 16.7257 15.1701C16.6911 15.3211 16.6534 15.4857 16.6065 15.6516V15.6556C16.3584 16.8228 15.7468 18.5457 14.672 20.4407C13.436 22.6202 11.8428 24.5863 9.956 26.2606C9.86115 26.3375 9.74037 26.3769 9.61734 26.3713C9.49431 26.3655 9.37788 26.3151 9.29087 26.2298L7.43611 24.4144C7.3914 24.3707 7.35634 24.3184 7.3331 24.2609C7.30986 24.2034 7.29893 24.1418 7.301 24.08C7.30307 24.0182 7.31809 23.9574 7.34513 23.9015C7.37217 23.8456 7.41065 23.7957 7.45818 23.755C7.4917 23.727 16.2132 14.5801 13.3691 8.48693C13.325 8.37809 13.1913 8.10801 12.9979 7.74589C12.9906 7.73349 12.9832 7.72108 12.9763 7.70828C12.9426 7.65041 12.9242 7.58522 12.9228 7.51863C12.9214 7.45205 12.9369 7.38616 12.9681 7.32696L14.1344 5.11385C14.1515 5.08146 14.1773 5.05425 14.209 5.03515C14.2408 5.01606 14.2772 5.00582 14.3145 5.00553C14.3517 5.00524 14.3883 5.01492 14.4204 5.03352C14.4524 5.05211 14.4786 5.07893 14.4962 5.11105C14.6243 5.34339 14.7541 5.5748 14.8854 5.80527C15.5497 6.97244 16.2504 8.11961 16.9761 9.25317C17.248 9.67786 17.5248 10.0997 17.8017 10.5216C18.4415 11.4966 19.0814 12.4716 19.6603 13.4817C20.3095 14.6149 20.6271 15.3051 20.8336 15.8253C20.853 15.8766 20.8611 15.9314 20.8574 15.986Z" fill="url(#paint1_linear_13055_5580)"/>
<defs>
<linearGradient id="paint0_linear_13055_5580" x1="-1.30769" y1="16" x2="24.8295" y2="16.4236" gradientUnits="userSpaceOnUse">
<stop stop-color="#4BF2A2"/>
<stop offset="0.522948" stop-color="#A89FE7"/>
<stop offset="0.669499" stop-color="#E1C4F4"/>
<stop offset="1" stop-color="#DD40CD"/>
<stop offset="1" stop-color="#DD40CD"/>
</linearGradient>
<linearGradient id="paint1_linear_13055_5580" x1="-1.30769" y1="16" x2="24.8295" y2="16.4236" gradientUnits="userSpaceOnUse">
<stop stop-color="#4BF2A2"/>
<stop offset="0.522948" stop-color="#A89FE7"/>
<stop offset="0.669499" stop-color="#E1C4F4"/>
<stop offset="1" stop-color="#DD40CD"/>
<stop offset="1" stop-color="#DD40CD"/>
</linearGradient>
</defs>
</svg>
