<svg width="373" height="52" viewBox="0 0 373 52" fill="none" xmlns="http://www.w3.org/2000/svg">
<path d="M262.1 -46.5332C260.367 -44.6666 261.167 -42.1332 263.7 -41.3332C265.167 -40.9333 266.367 -39.4666 266.234 -38.2666C266.234 -33.0666 268.1 -17.0666 269.167 -12.6666C269.834 -10.1333 271.167 -0.266588 271.967 9.33341C272.9 18.8001 273.7 26.9334 273.967 27.2001C274.1 27.3334 275.034 27.2001 275.834 26.6667C276.767 26.1334 276.9 25.2001 275.967 24.2667C275.3 23.3334 274.1 15.4667 273.3 6.66675C272.367 -2.13326 271.434 -11.0666 270.9 -13.1999C270.234 -16.5333 270.5 -16.7999 272.767 -16.1333C275.167 -15.3333 275.567 -15.9999 276.1 -19.9999C276.5 -23.3333 276.1 -24.6666 274.767 -24.6666C273.567 -24.6666 273.3 -23.7333 273.834 -21.9999C274.5 -20.1333 274.1 -19.3333 272.634 -19.3333C271.434 -19.3333 270.5 -20.3999 270.367 -21.7333C269.967 -27.1999 269.167 -32.3999 267.567 -39.1999C265.967 -46.1333 264.1 -48.5332 262.1 -46.5332Z" fill="white"/>
<path d="M226.5 -28.2666C226.5 -27.3333 231.7 -5.0666 232.634 -1.59993C233.034 -0.266596 233.7 0.666738 233.967 0.400071C234.5 -0.266596 228.1 -27.4666 227.167 -28.5333C226.767 -28.7999 226.5 -28.7999 226.5 -28.2666Z" fill="white"/>
<path d="M85.4336 0.666816C85.4336 3.20015 85.7003 4.26682 86.1003 2.93348C86.3669 1.73348 86.3669 -0.399851 86.1003 -1.73318C85.7003 -2.93318 85.4336 -1.86652 85.4336 0.666816Z" fill="white"/>
<path d="M369.567 1.60006C366.767 2.66672 367.567 4.00006 371.167 4.13339C373.167 4.26672 374.367 3.73339 374.1 2.93339C373.567 1.20006 371.7 0.666723 369.567 1.60006Z" fill="white"/>
<path d="M29.4336 4.6667C29.4336 6.53337 29.7003 7.20004 30.1003 6.2667C30.3669 5.4667 30.3669 3.8667 30.1003 2.93337C29.7003 2.13337 29.4336 2.80004 29.4336 4.6667Z" fill="white"/>
<path d="M234.634 3.73345C234.767 4.66679 235.3 6.80012 235.967 8.66679L237.167 12.0001L236.634 8.40012C236.367 6.40012 236.9 4.53345 237.567 4.26679C238.367 4.00012 237.967 3.46679 236.767 2.93345C235.434 2.40012 234.5 2.66679 234.634 3.73345Z" fill="white"/>
<path d="M344.233 11.3334C344.233 16.8 344.5 19.0667 344.767 16.2667C345.033 13.6 345.033 9.06671 344.767 6.26671C344.5 3.60004 344.233 5.86671 344.233 11.3334Z" fill="white"/>
<path d="M359.967 6.80012C359.967 8.26678 360.367 8.66678 360.767 7.60012C361.167 6.66678 361.034 5.46678 360.634 5.06678C360.234 4.53345 359.834 5.33345 359.967 6.80012Z" fill="white"/>
<path d="M150.5 8.00012C150.5 9.06679 151.034 10.0001 151.834 10.0001C152.5 10.0001 152.767 9.06679 152.367 8.00012C151.834 6.93346 151.3 6.00012 151.034 6.00012C150.767 6.00012 150.5 6.93346 150.5 8.00012Z" fill="white"/>
<path d="M28.1006 12.6667C28.1006 14.5334 28.3673 15.2 28.7673 14.2667C29.0339 13.4667 29.0339 11.8667 28.7673 10.9334C28.3673 10.1334 28.1006 10.8 28.1006 12.6667Z" fill="white"/>
<path d="M236.767 14.2667C236.367 15.6001 236.5 16.9334 237.167 17.3334C237.967 17.8667 238.5 19.4667 238.634 21.0667C238.634 22.6667 239.034 23.3334 239.3 22.4001C239.7 21.6001 239.434 18.9334 238.767 16.5334C237.967 13.2001 237.434 12.6667 236.767 14.2667Z" fill="white"/>
<path d="M297.167 16.5335C296.233 18.5335 296.233 19.3335 297.167 19.3335C298.767 19.3335 300.5 15.6002 299.433 14.5335C299.033 14.1335 298.1 15.0668 297.167 16.5335Z" fill="white"/>
<path d="M177.833 18.0002C177.433 18.6668 177.7 19.3335 178.367 19.3335C179.167 19.3335 179.833 18.6668 179.833 18.0002C179.833 17.2002 179.567 16.6668 179.3 16.6668C178.9 16.6668 178.233 17.2002 177.833 18.0002Z" fill="white"/>
<path d="M26.6336 21.4667C26.6336 22.9334 27.0336 23.3334 27.4336 22.2667C27.8336 21.3334 27.7002 20.1334 27.3002 19.7334C26.9002 19.2001 26.5002 20.0001 26.6336 21.4667Z" fill="white"/>
<path d="M35.8339 22.0002C34.1006 23.0668 34.1006 23.3335 36.1006 23.3335C37.3005 23.3335 38.7672 22.6668 39.1672 22.0002C40.2339 20.2668 38.5006 20.2668 35.8339 22.0002Z" fill="white"/>
<path d="M239.967 26.8001C239.967 28.2668 240.367 28.6668 240.767 27.6001C241.167 26.6668 241.034 25.4668 240.634 25.0668C240.234 24.5334 239.834 25.3334 239.967 26.8001Z" fill="white"/>
<path d="M344.101 28.6667C344.101 31.2 344.367 32.2667 344.767 30.9334C345.034 29.7334 345.034 27.6 344.767 26.2667C344.367 25.0667 344.101 26.1334 344.101 28.6667Z" fill="white"/>
<path d="M358.5 28.4C358.5 29.8667 359.434 30.8 361.167 30.8C363.567 30.8 363.567 30.5334 361.567 28.4C360.367 27.0667 359.167 26 358.9 26C358.767 26 358.5 27.0667 358.5 28.4Z" fill="white"/>
<path d="M25.1671 34.1335C23.5671 39.7335 23.3005 39.8668 22.3671 36.6668C21.4338 34.1335 21.4338 34.5335 21.9671 38.2668C22.5005 42.4001 21.9671 43.8668 18.5005 47.8668C15.4338 51.3335 14.5005 53.3335 15.1671 55.3335C15.9671 58.0001 16.1005 58.1335 17.9671 55.7335C18.9005 54.4001 19.8338 52.4001 19.8338 51.2001C19.8338 48.1335 23.3005 45.3335 24.2338 47.6001C24.6338 48.5335 25.0338 47.4668 25.0338 45.0668C25.1671 40.0001 30.9005 32.6668 34.6338 32.6668C36.2338 32.6668 36.9005 32.1335 36.3671 31.2001C35.9671 30.4001 33.8338 30.0001 31.7005 30.2668C29.5671 30.6668 27.7005 30.2668 27.4338 29.6001C27.1671 28.8001 26.2338 30.9335 25.1671 34.1335Z" fill="white"/>
<path d="M96.6334 30.0001C94.3667 30.8001 94.2334 30.9335 96.2334 31.7335C97.4334 32.1335 98.7667 32.0001 99.3001 31.2001C100.5 29.2001 99.5667 28.8001 96.6334 30.0001Z" fill="white"/>
<path d="M275.167 37.3334C276.9 67.6001 279.033 90.8001 280.1 92.0001C280.9 92.8001 281.033 92.0001 280.633 90.0001C280.233 88.1334 279.3 76.8001 278.367 64.6667C277.567 52.5334 276.367 39.3334 275.7 35.3334C274.633 28.2667 274.633 28.2667 275.167 37.3334Z" fill="white"/>
<path d="M241.301 32.1335C241.301 33.6002 241.701 34.0002 242.101 32.9335C242.501 32.0002 242.367 30.8002 241.967 30.4002C241.567 29.8668 241.167 30.6668 241.301 32.1335Z" fill="white"/>
<path d="M242.767 38.0001C242.767 39.8667 243.034 40.5334 243.434 39.6001C243.7 38.8001 243.7 37.2001 243.434 36.2667C243.034 35.4667 242.767 36.1334 242.767 38.0001Z" fill="white"/>
<path d="M213.301 40.1335C213.301 41.6002 213.701 42.0002 214.101 40.9335C214.501 40.0002 214.367 38.8002 213.967 38.4002C213.567 37.8668 213.167 38.6668 213.301 40.1335Z" fill="white"/>
<path d="M115.167 43.3334C115.567 44.0001 116.234 44.6667 116.634 44.6667C116.9 44.6667 117.167 44.0001 117.167 43.3334C117.167 42.5334 116.5 42.0001 115.7 42.0001C115.034 42.0001 114.767 42.5334 115.167 43.3334Z" fill="white"/>
<path d="M243.967 44.1335C243.967 45.6002 244.367 46.0002 244.767 44.9335C245.167 44.0002 245.034 42.8002 244.634 42.4002C244.234 41.8668 243.834 42.6668 243.967 44.1335Z" fill="white"/>
<path d="M344.233 55.3334C344.233 60.8 344.5 63.0667 344.767 60.2667C345.033 57.6 345.033 53.0667 344.767 50.2667C344.5 47.6 344.233 49.8667 344.233 55.3334Z" fill="white"/>
<path d="M245.301 49.4667C245.301 50.9334 245.701 51.3334 246.101 50.2667C246.501 49.3334 246.367 48.1334 245.967 47.7334C245.567 47.2001 245.167 48.0001 245.301 49.4667Z" fill="white"/>
<path d="M69.9668 49.7334C68.5001 50 66.5001 51.0667 65.4335 52.1334C64.5001 53.2 62.6335 54 61.4335 54C60.2335 54.1334 62.5001 55.4667 66.5001 57.3334C70.5001 59.0667 73.9668 60.4 73.9668 60.2667C74.1001 60.1334 73.8335 57.6 73.3001 54.6667C72.6335 50.2667 71.9668 49.3334 69.9668 49.7334Z" fill="white"/>
<path d="M101.167 51.3334C101.167 52.0001 101.834 52.6667 102.634 52.6667C103.3 52.6667 103.567 52.0001 103.167 51.3334C102.767 50.5334 102.1 50.0001 101.7 50.0001C101.434 50.0001 101.167 50.5334 101.167 51.3334Z" fill="white"/>
</svg>
