<svg width="34" height="28" viewBox="0 0 34 28" fill="none" xmlns="http://www.w3.org/2000/svg">
<path d="M28.7824 2.50842C26.6154 1.45134 24.2916 0.672536 21.8619 0.226481C21.8176 0.217872 21.7734 0.239385 21.7506 0.282414C21.4517 0.84751 21.1207 1.58473 20.8889 2.16417C18.2756 1.74825 15.6757 1.74825 13.116 2.16417C12.8841 1.57185 12.541 0.84751 12.2408 0.282414C12.218 0.240821 12.1738 0.219307 12.1296 0.226481C9.70121 0.67111 7.37738 1.44992 5.20899 2.50842C5.19022 2.51702 5.17413 2.53138 5.16345 2.55001C0.755638 9.55073 -0.451846 16.3794 0.140505 23.1233C0.143185 23.1563 0.160607 23.1879 0.184731 23.208C3.09288 25.4784 5.90992 26.8568 8.67465 27.7704C8.71889 27.7847 8.76577 27.7675 8.79393 27.7288C9.44793 26.7793 10.0309 25.7782 10.5308 24.7254C10.5603 24.6638 10.5321 24.5906 10.4718 24.5662C9.5471 24.1933 8.6666 23.7386 7.81962 23.2223C7.75262 23.1807 7.74726 23.0789 7.80889 23.0301C7.98713 22.8881 8.16541 22.7404 8.3356 22.5912C8.36639 22.564 8.4093 22.5582 8.4455 22.5754C14.0098 25.2762 20.0339 25.2762 25.5325 22.5754C25.5687 22.5568 25.6116 22.5625 25.6438 22.5898C25.814 22.7389 25.9922 22.8881 26.1718 23.0301C26.2334 23.0789 26.2294 23.1807 26.1624 23.2223C25.3154 23.7487 24.4349 24.1933 23.5089 24.5648C23.4486 24.5892 23.4218 24.6638 23.4513 24.7254C23.9619 25.7767 24.5448 26.7779 25.1868 27.7274C25.2136 27.7675 25.2618 27.7847 25.3061 27.7704C28.0842 26.8568 30.9012 25.4784 33.8094 23.208C33.8348 23.1879 33.8509 23.1578 33.8536 23.1248C34.5625 15.328 32.6662 8.55535 28.8266 2.55144C28.8173 2.53138 28.8012 2.51702 28.7824 2.50842ZM11.3617 19.017C9.68646 19.017 8.3061 17.3819 8.3061 15.3739C8.3061 13.3659 9.65969 11.7309 11.3617 11.7309C13.0771 11.7309 14.4441 13.3803 14.4172 15.3739C14.4172 17.3819 13.0637 19.017 11.3617 19.017ZM22.6592 19.017C20.984 19.017 19.6037 17.3819 19.6037 15.3739C19.6037 13.3659 20.9572 11.7309 22.6592 11.7309C24.3746 11.7309 25.7416 13.3803 25.7148 15.3739C25.7148 17.3819 24.3746 19.017 22.6592 19.017Z" fill="#B5B5C6"/>
</svg>
