<svg width="34" height="32" viewBox="0 0 34 32" fill="none" xmlns="http://www.w3.org/2000/svg">
<path d="M34 16.4356C34 7.3584 26.3889 0 17 0C7.61107 0 0 7.3584 0 16.4356C0 23.6409 4.79522 29.7621 11.4679 31.9813C11.8746 31.6974 12.3438 31.3473 12.3438 30.7592C12.3438 29.8549 12.323 27.5293 12.323 27.5293C11.7297 27.6134 11.1306 27.6535 10.531 27.6494C7.87727 27.6494 7.0363 26.0218 6.6385 25.1103C6.11801 23.9234 5.4488 23.3663 4.72904 22.9206C4.28959 22.6474 4.18847 22.3247 4.69706 22.2326C7.04597 21.8071 7.64602 24.7933 9.21493 25.2699C10.3347 25.6092 11.7743 25.4625 12.4903 25.0168C12.5847 24.1053 13.2688 23.316 13.8384 22.9005C9.84844 22.5324 7.48318 21.1996 6.25408 19.0581L6.12247 18.818L5.81463 18.1379L5.72318 17.8942C5.3395 16.8073 5.16923 15.5622 5.16923 14.1712C5.16923 11.7026 5.9693 10.7709 7.04374 9.45464C6.22211 6.64025 7.34116 4.71654 7.34116 4.71654C7.34116 4.71654 9.06845 4.3722 12.3327 6.62012C14.1016 5.89118 18.8195 5.82936 21.0517 6.45765C22.4205 5.5871 24.9263 4.35207 25.9376 4.69785C26.2112 5.12126 26.8009 6.35701 26.296 9.07005C26.6388 9.66527 28.4226 10.9334 28.4293 14.517C28.401 15.839 28.2575 16.9554 27.992 17.8993L27.8433 18.3816C27.8433 18.3816 27.7593 18.6095 27.6671 18.8266L27.5585 19.066C26.3748 21.5655 23.9471 22.4986 20.0241 22.8868C21.2955 23.656 21.6599 24.6215 21.6599 27.2339C21.6599 29.8462 21.6242 30.1971 21.6324 30.798C21.6398 31.3293 22.0785 31.711 22.4741 32C29.1788 29.7959 34 23.6603 34 16.4356Z" fill="#B5B5C6"/>
</svg>
